M48
;Layer_Color=9474304
;FILE_FORMAT=2:4
INCH,TZ
;TYPE=PLATED
T1F00S00C0.0280
T2F00S00C0.0315
T4F00S00C0.0402
%
T01
X12500Y3100
X10000Y7100
X10100Y11200
X7800Y11300
Y10600
X6300Y10700
X6200Y12400
X8800Y14000
X14000Y10300
X3400Y11700
X2798Y11992
X2850Y11350
X3200Y14000
T02
X5716Y6900
X7684
X2500Y8616
Y10584
T04
X14100Y13000
Y14000
X1100Y13900
Y12900
M30
