G04*
G04 #@! TF.GenerationSoftware,Altium Limited,Altium Designer,22.3.1 (43)*
G04*
G04 Layer_Color=65535*
%FSLAX25Y25*%
%MOIN*%
G70*
G04*
G04 #@! TF.SameCoordinates,8E878BB6-4DE7-4028-B4E9-A3CA9BB4B007*
G04*
G04*
G04 #@! TF.FilePolarity,Positive*
G04*
G01*
G75*
%ADD10C,0.00591*%
%ADD11C,0.00984*%
%ADD12C,0.00787*%
%ADD13C,0.00600*%
%ADD14C,0.00500*%
D10*
X45669Y96000D02*
G03*
X45669Y96000I-20669J0D01*
G01*
X87669Y69000D02*
G03*
X87669Y69000I-20669J0D01*
G01*
D11*
X45988Y132000D02*
G03*
X45988Y132000I-492J0D01*
G01*
X11492Y121697D02*
G03*
X11492Y121697I-492J0D01*
G01*
D12*
X141606Y6394D02*
Y18795D01*
X92394Y6394D02*
Y18795D01*
X141606Y43205D02*
Y55606D01*
X92394Y43205D02*
Y55606D01*
Y6394D02*
X141606D01*
X92394Y55606D02*
X141606D01*
X31606Y130539D02*
X32394D01*
X31606Y135461D02*
X32394D01*
X15157Y78382D02*
X34843D01*
X50004Y144244D02*
X77996D01*
Y119756D02*
Y124224D01*
Y139776D02*
Y144244D01*
X50004Y119756D02*
X77996D01*
X50004D02*
Y124224D01*
Y139776D02*
Y144244D01*
X2654Y4610D02*
Y41618D01*
Y4610D02*
X39169D01*
X50784D02*
X59347D01*
Y18488D01*
X2654Y41618D02*
X56689D01*
X59347D01*
Y29906D02*
Y41618D01*
X61146Y111315D02*
X66854D01*
X61146Y100685D02*
X66854D01*
X49382Y59157D02*
Y78843D01*
X5744Y123252D02*
X16256D01*
Y144748D01*
X5744D02*
X16256D01*
X5744Y123252D02*
Y144748D01*
X141606Y62394D02*
Y74795D01*
X92394Y62394D02*
Y74795D01*
X141606Y99205D02*
Y111606D01*
X92394Y99205D02*
Y111606D01*
Y62394D02*
X141606D01*
X92394Y111606D02*
X141606D01*
D13*
X91600Y140716D02*
Y143715D01*
X93599Y140716D01*
Y143715D01*
X94599Y140716D02*
X95599D01*
X95099D01*
Y142716D01*
X94599D01*
X99098D02*
X97598D01*
X97098Y142216D01*
Y141216D01*
X97598Y140716D01*
X99098D01*
X100097D02*
Y143715D01*
Y141716D02*
X101597Y142716D01*
X100097Y141716D02*
X101597Y140716D01*
X108095Y143215D02*
X107595Y143715D01*
X106595D01*
X106095Y143215D01*
Y141216D01*
X106595Y140716D01*
X107595D01*
X108095Y141216D01*
X109594Y142716D02*
X110594D01*
X111094Y142216D01*
Y140716D01*
X109594D01*
X109094Y141216D01*
X109594Y141716D01*
X111094D01*
X112093Y142716D02*
Y140716D01*
Y141716D01*
X112593Y142216D01*
X113093Y142716D01*
X113593D01*
X117092Y143715D02*
Y140716D01*
X115592D01*
X115092Y141216D01*
Y142216D01*
X115592Y142716D01*
X117092D01*
X118591D02*
X119591D01*
X120091Y142216D01*
Y140716D01*
X118591D01*
X118091Y141216D01*
X118591Y141716D01*
X120091D01*
X121090Y140716D02*
Y142716D01*
X121590D01*
X122090Y142216D01*
Y140716D01*
Y142216D01*
X122590Y142716D01*
X123090Y142216D01*
Y140716D01*
X124589D02*
X125589D01*
X126089Y141216D01*
Y142216D01*
X125589Y142716D01*
X124589D01*
X124090Y142216D01*
Y141216D01*
X124589Y140716D01*
X127088D02*
Y142716D01*
X128588D01*
X129088Y142216D01*
Y140716D01*
X131587D02*
X130587D01*
X130088Y141216D01*
Y142216D01*
X130587Y142716D01*
X131587D01*
X132087Y142216D01*
Y141716D01*
X130088D01*
X93599Y138676D02*
X91600D01*
Y135677D01*
X93599D01*
X91600Y137177D02*
X92600D01*
X94599Y135677D02*
X95599D01*
X95099D01*
Y138676D01*
X94599D01*
X98598Y135677D02*
X97598D01*
X97098Y136177D01*
Y137177D01*
X97598Y137677D01*
X98598D01*
X99098Y137177D01*
Y136677D01*
X97098D01*
X102097Y137677D02*
X100597D01*
X100097Y137177D01*
Y136177D01*
X100597Y135677D01*
X102097D01*
X103596Y138177D02*
Y137677D01*
X103096D01*
X104096D01*
X103596D01*
Y136177D01*
X104096Y135677D01*
X105596Y137677D02*
Y135677D01*
Y136677D01*
X106095Y137177D01*
X106595Y137677D01*
X107095D01*
X109094Y135677D02*
X110094D01*
X110594Y136177D01*
Y137177D01*
X110094Y137677D01*
X109094D01*
X108595Y137177D01*
Y136177D01*
X109094Y135677D01*
X111593D02*
Y137677D01*
X113093D01*
X113593Y137177D01*
Y135677D01*
X114593D02*
X115592D01*
X115092D01*
Y137677D01*
X114593D01*
X119091D02*
X117592D01*
X117092Y137177D01*
Y136177D01*
X117592Y135677D01*
X119091D01*
X120091D02*
X121590D01*
X122090Y136177D01*
X121590Y136677D01*
X120591D01*
X120091Y137177D01*
X120591Y137677D01*
X122090D01*
X126089Y138177D02*
X126589Y138676D01*
X127588D01*
X128088Y138177D01*
Y137677D01*
X127588Y137177D01*
X127088D01*
X127588D01*
X128088Y136677D01*
Y136177D01*
X127588Y135677D01*
X126589D01*
X126089Y136177D01*
X91600Y130639D02*
Y133638D01*
X93099D01*
X93599Y133138D01*
Y132138D01*
X93099Y131638D01*
X91600D01*
X94599Y132638D02*
Y130639D01*
Y131638D01*
X95099Y132138D01*
X95599Y132638D01*
X96099D01*
X98098Y130639D02*
X99098D01*
X99597Y131138D01*
Y132138D01*
X99098Y132638D01*
X98098D01*
X97598Y132138D01*
Y131138D01*
X98098Y130639D01*
X100597Y129639D02*
X101097D01*
X101597Y130139D01*
Y132638D01*
X105096Y130639D02*
X104096D01*
X103596Y131138D01*
Y132138D01*
X104096Y132638D01*
X105096D01*
X105596Y132138D01*
Y131638D01*
X103596D01*
X108595Y132638D02*
X107095D01*
X106595Y132138D01*
Y131138D01*
X107095Y130639D01*
X108595D01*
X110094Y133138D02*
Y132638D01*
X109594D01*
X110594D01*
X110094D01*
Y131138D01*
X110594Y130639D01*
X93599Y127599D02*
X91600D01*
Y126100D01*
X92600D01*
X91600D01*
Y124600D01*
X95099Y126599D02*
X96099D01*
X96598Y126100D01*
Y124600D01*
X95099D01*
X94599Y125100D01*
X95099Y125600D01*
X96598D01*
X97598Y124600D02*
X98598D01*
X98098D01*
Y127599D01*
X97598D01*
X100097Y124600D02*
X101097D01*
X100597D01*
Y127599D01*
X100097D01*
X107595Y124600D02*
X105596D01*
X107595Y126599D01*
Y127099D01*
X107095Y127599D01*
X106095D01*
X105596Y127099D01*
X108595D02*
X109094Y127599D01*
X110094D01*
X110594Y127099D01*
Y125100D01*
X110094Y124600D01*
X109094D01*
X108595Y125100D01*
Y127099D01*
X113593Y124600D02*
X111593D01*
X113593Y126599D01*
Y127099D01*
X113093Y127599D01*
X112093D01*
X111593Y127099D01*
X116592Y124600D02*
X114593D01*
X116592Y126599D01*
Y127099D01*
X116092Y127599D01*
X115092D01*
X114593Y127099D01*
D14*
X114001Y33200D02*
Y30800D01*
X115600D01*
X116400Y32800D02*
X116800Y33200D01*
X117599D01*
X117999Y32800D01*
Y32400D01*
X117599Y32000D01*
X117200D01*
X117599D01*
X117999Y31600D01*
Y31200D01*
X117599Y30800D01*
X116800D01*
X116400Y31200D01*
X30400Y125800D02*
Y128200D01*
X31600D01*
X32000Y127800D01*
Y127000D01*
X31600Y126600D01*
X30400D01*
X31200D02*
X32000Y125800D01*
X32800D02*
X33599D01*
X33200D01*
Y128200D01*
X32800Y127800D01*
X24600Y96800D02*
X24200Y97200D01*
X23401D01*
X23001Y96800D01*
Y95200D01*
X23401Y94800D01*
X24200D01*
X24600Y95200D01*
X25400Y96800D02*
X25800Y97200D01*
X26599D01*
X26999Y96800D01*
Y96400D01*
X26599Y96000D01*
X26200D01*
X26599D01*
X26999Y95600D01*
Y95200D01*
X26599Y94800D01*
X25800D01*
X25400Y95200D01*
X62401Y134200D02*
Y131800D01*
X63600D01*
X64000Y132200D01*
Y133800D01*
X63600Y134200D01*
X62401D01*
X64800Y131800D02*
X65600D01*
X65200D01*
Y134200D01*
X64800Y133800D01*
X15600Y24200D02*
X14800D01*
X15200D01*
Y22200D01*
X14800Y21800D01*
X14401D01*
X14001Y22200D01*
X17999Y21800D02*
X16400D01*
X17999Y23400D01*
Y23800D01*
X17600Y24200D01*
X16800D01*
X16400Y23800D01*
X64000Y97800D02*
X63600Y98200D01*
X62800D01*
X62401Y97800D01*
Y96200D01*
X62800Y95800D01*
X63600D01*
X64000Y96200D01*
X64800Y95800D02*
X65600D01*
X65200D01*
Y98200D01*
X64800Y97800D01*
X66600Y69800D02*
X66200Y70200D01*
X65400D01*
X65001Y69800D01*
Y68200D01*
X65400Y67800D01*
X66200D01*
X66600Y68200D01*
X68999Y67800D02*
X67400D01*
X68999Y69400D01*
Y69800D01*
X68599Y70200D01*
X67800D01*
X67400Y69800D01*
X11000Y119200D02*
X10200D01*
X10600D01*
Y117200D01*
X10200Y116800D01*
X9800D01*
X9401Y117200D01*
X11800Y116800D02*
X12599D01*
X12200D01*
Y119200D01*
X11800Y118800D01*
X115401Y88200D02*
Y85800D01*
X117000D01*
X117800D02*
X118599D01*
X118200D01*
Y88200D01*
X117800Y87800D01*
M02*
