G04*
G04 #@! TF.GenerationSoftware,Altium Limited,Altium Designer,22.3.1 (43)*
G04*
G04 Layer_Color=128*
%FSLAX25Y25*%
%MOIN*%
G70*
G04*
G04 #@! TF.SameCoordinates,8E878BB6-4DE7-4028-B4E9-A3CA9BB4B007*
G04*
G04*
G04 #@! TF.FilePolarity,Positive*
G04*
G01*
G75*
%ADD49C,0.00200*%
D49*
X138992Y130000D02*
X143008D01*
X141000Y127992D02*
Y132008D01*
X138992Y140000D02*
X143008D01*
X141000Y137992D02*
Y142008D01*
X23425Y105843D02*
X26575D01*
X25000Y104268D02*
Y107417D01*
X23425Y86157D02*
X26575D01*
X25000Y84583D02*
Y87732D01*
X42811Y5496D02*
X46748D01*
X44780Y3528D02*
Y7464D01*
X31000Y24000D02*
X34937D01*
X32969Y22031D02*
Y25969D01*
X54622Y24000D02*
X58559D01*
X56591Y22031D02*
Y25969D01*
X55583Y69000D02*
X58732D01*
X57157Y67425D02*
Y70575D01*
X75268Y69000D02*
X78417D01*
X76843Y67425D02*
Y70575D01*
X8992Y139000D02*
X13008D01*
X11000Y136992D02*
Y141008D01*
X8992Y129000D02*
X13008D01*
X11000Y126992D02*
Y131008D01*
X30600Y140000D02*
X33400D01*
X32000Y138600D02*
Y141400D01*
X138600Y103000D02*
X141400D01*
X140000Y101600D02*
Y104400D01*
X86600Y140000D02*
X89400D01*
X88000Y138600D02*
Y141400D01*
X99600Y112000D02*
X102400D01*
X101000Y110600D02*
Y113400D01*
X76600Y106000D02*
X79400D01*
X78000Y104600D02*
Y107400D01*
X26579Y119919D02*
X29379D01*
X27979Y118519D02*
Y121319D01*
X32600Y117000D02*
X35400D01*
X34000Y115600D02*
Y118400D01*
X27100Y113501D02*
X29900D01*
X28500Y112101D02*
Y114901D01*
X98600Y71000D02*
X101400D01*
X100000Y69600D02*
Y72400D01*
X60600Y124000D02*
X63400D01*
X62000Y122600D02*
Y125400D01*
X61600Y107000D02*
X64400D01*
X63000Y105600D02*
Y108400D01*
X76600Y113000D02*
X79400D01*
X78000Y111600D02*
Y114400D01*
X123600Y31000D02*
X126400D01*
X125000Y29600D02*
Y32400D01*
M02*
