G04*
G04 #@! TF.GenerationSoftware,Altium Limited,Altium Designer,22.3.1 (43)*
G04*
G04 Layer_Color=2752767*
%FSLAX25Y25*%
%MOIN*%
G70*
G04*
G04 #@! TF.SameCoordinates,8E878BB6-4DE7-4028-B4E9-A3CA9BB4B007*
G04*
G04*
G04 #@! TF.FilePolarity,Positive*
G04*
G01*
G75*
%ADD49C,0.00200*%
%ADD50C,0.00267*%
D49*
X140200Y129200D02*
Y130800D01*
X141800D01*
Y129200D01*
X140200D01*
Y139200D02*
Y140800D01*
X141800D01*
Y139200D01*
X140200D01*
X44780Y4696D02*
X43980Y6296D01*
X45580D01*
X44780Y4696D01*
X32969Y23200D02*
X32169Y24800D01*
X33769D01*
X32969Y23200D01*
X56591D02*
X55791Y24800D01*
X57391D01*
X56591Y23200D01*
X10200Y138200D02*
Y139800D01*
X11800D01*
Y138200D01*
X10200D01*
Y128200D02*
Y129800D01*
X11800D01*
Y128200D01*
X10200D01*
X32000Y139200D02*
X32400Y139600D01*
X32800D01*
X32400Y140000D01*
X32800Y140400D01*
X32400D01*
X32000Y140800D01*
X31600Y140400D01*
X31200D01*
X31600Y140000D01*
X31200Y139600D01*
X31600D01*
X32000Y139200D01*
X140000Y102200D02*
X140400Y102600D01*
X140800D01*
X140400Y103000D01*
X140800Y103400D01*
X140400D01*
X140000Y103800D01*
X139600Y103400D01*
X139200D01*
X139600Y103000D01*
X139200Y102600D01*
X139600D01*
X140000Y102200D01*
X88000Y139200D02*
X88400Y139600D01*
X88800D01*
X88400Y140000D01*
X88800Y140400D01*
X88400D01*
X88000Y140800D01*
X87600Y140400D01*
X87200D01*
X87600Y140000D01*
X87200Y139600D01*
X87600D01*
X88000Y139200D01*
X101000Y111200D02*
X101400Y111600D01*
X101800D01*
X101400Y112000D01*
X101800Y112400D01*
X101400D01*
X101000Y112800D01*
X100600Y112400D01*
X100200D01*
X100600Y112000D01*
X100200Y111600D01*
X100600D01*
X101000Y111200D01*
X78000Y105200D02*
X78400Y105600D01*
X78800D01*
X78400Y106000D01*
X78800Y106400D01*
X78400D01*
X78000Y106800D01*
X77600Y106400D01*
X77200D01*
X77600Y106000D01*
X77200Y105600D01*
X77600D01*
X78000Y105200D01*
X27979Y119119D02*
X28379Y119519D01*
X28779D01*
X28379Y119919D01*
X28779Y120319D01*
X28379D01*
X27979Y120719D01*
X27579Y120319D01*
X27179D01*
X27579Y119919D01*
X27179Y119519D01*
X27579D01*
X27979Y119119D01*
X34000Y116200D02*
X34400Y116600D01*
X34800D01*
X34400Y117000D01*
X34800Y117400D01*
X34400D01*
X34000Y117800D01*
X33600Y117400D01*
X33200D01*
X33600Y117000D01*
X33200Y116600D01*
X33600D01*
X34000Y116200D01*
X28500Y112701D02*
X28900Y113101D01*
X29300D01*
X28900Y113501D01*
X29300Y113901D01*
X28900D01*
X28500Y114301D01*
X28100Y113901D01*
X27700D01*
X28100Y113501D01*
X27700Y113101D01*
X28100D01*
X28500Y112701D01*
X100000Y70200D02*
X100400Y70600D01*
X100800D01*
X100400Y71000D01*
X100800Y71400D01*
X100400D01*
X100000Y71800D01*
X99600Y71400D01*
X99200D01*
X99600Y71000D01*
X99200Y70600D01*
X99600D01*
X100000Y70200D01*
X62000Y123200D02*
X62400Y123600D01*
X62800D01*
X62400Y124000D01*
X62800Y124400D01*
X62400D01*
X62000Y124800D01*
X61600Y124400D01*
X61200D01*
X61600Y124000D01*
X61200Y123600D01*
X61600D01*
X62000Y123200D01*
X63000Y106200D02*
X63400Y106600D01*
X63800D01*
X63400Y107000D01*
X63800Y107400D01*
X63400D01*
X63000Y107800D01*
X62600Y107400D01*
X62200D01*
X62600Y107000D01*
X62200Y106600D01*
X62600D01*
X63000Y106200D01*
X78000Y112200D02*
X78400Y112600D01*
X78800D01*
X78400Y113000D01*
X78800Y113400D01*
X78400D01*
X78000Y113800D01*
X77600Y113400D01*
X77200D01*
X77600Y113000D01*
X77200Y112600D01*
X77600D01*
X78000Y112200D01*
X125000Y30200D02*
X125400Y30600D01*
X125800D01*
X125400Y31000D01*
X125800Y31400D01*
X125400D01*
X125000Y31800D01*
X124600Y31400D01*
X124200D01*
X124600Y31000D01*
X124200Y30600D01*
X124600D01*
X125000Y30200D01*
D50*
X25800Y105843D02*
G03*
X25800Y105843I-800J0D01*
G01*
Y86157D02*
G03*
X25800Y86157I-800J0D01*
G01*
X57957Y69000D02*
G03*
X57957Y69000I-800J0D01*
G01*
X77643D02*
G03*
X77643Y69000I-800J0D01*
G01*
M02*
