G04*
G04 #@! TF.GenerationSoftware,Altium Limited,Altium Designer,22.3.1 (43)*
G04*
G04 Layer_Physical_Order=4*
G04 Layer_Color=16711680*
%FSLAX25Y25*%
%MOIN*%
G70*
G04*
G04 #@! TF.SameCoordinates,8E878BB6-4DE7-4028-B4E9-A3CA9BB4B007*
G04*
G04*
G04 #@! TF.FilePolarity,Positive*
G04*
G01*
G75*
%ADD18R,0.04331X0.08071*%
%ADD20R,0.06181X0.06181*%
%ADD21C,0.06181*%
%ADD22C,0.05118*%
%ADD23R,0.05118X0.05118*%
%ADD26R,0.05118X0.05118*%
%ADD30C,0.02500*%
%ADD31C,0.02500*%
%ADD32C,0.01000*%
G04:AMPARAMS|DCode=33|XSize=82.68mil|YSize=59.06mil|CornerRadius=14.76mil|HoleSize=0mil|Usage=FLASHONLY|Rotation=180.000|XOffset=0mil|YOffset=0mil|HoleType=Round|Shape=RoundedRectangle|*
%AMROUNDEDRECTD33*
21,1,0.08268,0.02953,0,0,180.0*
21,1,0.05315,0.05906,0,0,180.0*
1,1,0.02953,-0.02657,0.01476*
1,1,0.02953,0.02657,0.01476*
1,1,0.02953,0.02657,-0.01476*
1,1,0.02953,-0.02657,-0.01476*
%
%ADD33ROUNDEDRECTD33*%
G04:AMPARAMS|DCode=34|XSize=82.68mil|YSize=59.06mil|CornerRadius=14.76mil|HoleSize=0mil|Usage=FLASHONLY|Rotation=90.000|XOffset=0mil|YOffset=0mil|HoleType=Round|Shape=RoundedRectangle|*
%AMROUNDEDRECTD34*
21,1,0.08268,0.02953,0,0,90.0*
21,1,0.05315,0.05906,0,0,90.0*
1,1,0.02953,0.01476,0.02657*
1,1,0.02953,0.01476,-0.02657*
1,1,0.02953,-0.01476,-0.02657*
1,1,0.02953,-0.01476,0.02657*
%
%ADD34ROUNDEDRECTD34*%
%ADD35C,0.05000*%
G04:AMPARAMS|DCode=36|XSize=175.2mil|YSize=59.84mil|CornerRadius=29.92mil|HoleSize=0mil|Usage=FLASHONLY|Rotation=0.000|XOffset=0mil|YOffset=0mil|HoleType=Round|Shape=RoundedRectangle|*
%AMROUNDEDRECTD36*
21,1,0.17520,0.00000,0,0,0.0*
21,1,0.11536,0.05984,0,0,0.0*
1,1,0.05984,0.05768,0.00000*
1,1,0.05984,-0.05768,0.00000*
1,1,0.05984,-0.05768,0.00000*
1,1,0.05984,0.05768,0.00000*
%
%ADD36ROUNDEDRECTD36*%
%ADD37R,0.08071X0.04331*%
%ADD38R,0.09764X0.06496*%
%ADD39R,0.00955X0.03862*%
G04:AMPARAMS|DCode=40|XSize=38.62mil|YSize=9.55mil|CornerRadius=4.77mil|HoleSize=0mil|Usage=FLASHONLY|Rotation=90.000|XOffset=0mil|YOffset=0mil|HoleType=Round|Shape=RoundedRectangle|*
%AMROUNDEDRECTD40*
21,1,0.03862,0.00000,0,0,90.0*
21,1,0.02908,0.00955,0,0,90.0*
1,1,0.00955,0.00000,0.01454*
1,1,0.00955,0.00000,-0.01454*
1,1,0.00955,0.00000,-0.01454*
1,1,0.00955,0.00000,0.01454*
%
%ADD40ROUNDEDRECTD40*%
G04:AMPARAMS|DCode=41|XSize=47.45mil|YSize=20.86mil|CornerRadius=10.43mil|HoleSize=0mil|Usage=FLASHONLY|Rotation=90.000|XOffset=0mil|YOffset=0mil|HoleType=Round|Shape=RoundedRectangle|*
%AMROUNDEDRECTD41*
21,1,0.04745,0.00000,0,0,90.0*
21,1,0.02659,0.02086,0,0,90.0*
1,1,0.02086,0.00000,0.01330*
1,1,0.02086,0.00000,-0.01330*
1,1,0.02086,0.00000,-0.01330*
1,1,0.02086,0.00000,0.01330*
%
%ADD41ROUNDEDRECTD41*%
%ADD42R,0.02086X0.04745*%
%ADD43R,0.05938X0.04750*%
%ADD44R,0.04940X0.05733*%
%ADD45R,0.05733X0.04940*%
%ADD46R,0.04750X0.05938*%
%ADD47C,0.01200*%
%ADD48C,0.01600*%
G36*
X150000Y0D02*
X0D01*
Y150000D01*
X150000D01*
Y0D01*
D02*
G37*
%LPC*%
G36*
X141460Y143491D02*
X140541D01*
X139653Y143253D01*
X138857Y142793D01*
X138207Y142143D01*
X137747Y141347D01*
X137686Y141118D01*
X133900D01*
X133584Y141055D01*
X131279D01*
X130935Y141399D01*
X130328Y141650D01*
X129672D01*
X129065Y141399D01*
X128869Y141202D01*
X128369Y141410D01*
Y142912D01*
X121631D01*
Y137362D01*
X128369D01*
Y138591D01*
X128869Y138798D01*
X129065Y138601D01*
X129672Y138350D01*
X130328D01*
X130935Y138601D01*
X131399Y139065D01*
X131463Y139220D01*
X133837D01*
X134153Y139282D01*
X137579D01*
X137747Y138653D01*
X138207Y137857D01*
X138857Y137207D01*
X139653Y136747D01*
X140541Y136509D01*
X141460D01*
X142347Y136747D01*
X143143Y137207D01*
X143793Y137857D01*
X144253Y138653D01*
X144491Y139541D01*
Y140460D01*
X144253Y141347D01*
X143793Y142143D01*
X143143Y142793D01*
X142347Y143253D01*
X141460Y143491D01*
D02*
G37*
G36*
X82969Y142512D02*
X80500D01*
Y140637D01*
X82969D01*
Y142512D01*
D02*
G37*
G36*
X79500D02*
X77031D01*
Y140637D01*
X79500D01*
Y142512D01*
D02*
G37*
G36*
X88500Y142499D02*
Y140500D01*
X90499D01*
X90119Y141416D01*
X89416Y142119D01*
X88500Y142499D01*
D02*
G37*
G36*
X87500D02*
X86584Y142119D01*
X85881Y141416D01*
X85501Y140500D01*
X87500D01*
Y142499D01*
D02*
G37*
G36*
X32500D02*
Y140500D01*
X34499D01*
X34119Y141416D01*
X33416Y142119D01*
X32500Y142499D01*
D02*
G37*
G36*
X31500D02*
X30584Y142119D01*
X29881Y141416D01*
X29501Y140500D01*
X31500D01*
Y142499D01*
D02*
G37*
G36*
X97866Y141721D02*
X95500D01*
Y139751D01*
X97866D01*
Y141721D01*
D02*
G37*
G36*
X94500D02*
X92133D01*
Y139751D01*
X94500D01*
Y141721D01*
D02*
G37*
G36*
X82969Y139637D02*
X80500D01*
Y137762D01*
X82969D01*
Y139637D01*
D02*
G37*
G36*
X79500D02*
X77031D01*
Y137762D01*
X79500D01*
Y139637D01*
D02*
G37*
G36*
X90499Y139500D02*
X88500D01*
Y137501D01*
X89416Y137881D01*
X90119Y138584D01*
X90499Y139500D01*
D02*
G37*
G36*
X87500D02*
X85501D01*
X85881Y138584D01*
X86584Y137881D01*
X87500Y137501D01*
Y139500D01*
D02*
G37*
G36*
X34499D02*
X32500D01*
Y137501D01*
X33416Y137881D01*
X34119Y138584D01*
X34499Y139500D01*
D02*
G37*
G36*
X31500D02*
X29501D01*
X29881Y138584D01*
X30584Y137881D01*
X31500Y137501D01*
Y139500D01*
D02*
G37*
G36*
X97866Y138751D02*
X95500D01*
Y136781D01*
X97866D01*
Y138751D01*
D02*
G37*
G36*
X94500D02*
X92133D01*
Y136781D01*
X94500D01*
Y138751D01*
D02*
G37*
G36*
X11460Y142491D02*
X10541D01*
X9653Y142253D01*
X8857Y141793D01*
X8207Y141143D01*
X7747Y140347D01*
X7509Y139460D01*
Y138540D01*
X7747Y137653D01*
X8207Y136857D01*
X8857Y136207D01*
X9653Y135747D01*
X10541Y135509D01*
X11460D01*
X12347Y135747D01*
X13143Y136207D01*
X13793Y136857D01*
X14253Y137653D01*
X14491Y138540D01*
Y139460D01*
X14253Y140347D01*
X13793Y141143D01*
X13143Y141793D01*
X12347Y142253D01*
X11460Y142491D01*
D02*
G37*
G36*
X128369Y134638D02*
X121631D01*
Y132780D01*
X113369D01*
Y134638D01*
X106631D01*
Y129088D01*
X113369D01*
Y130945D01*
X117481D01*
Y130617D01*
X117733Y130010D01*
X118197Y129546D01*
X118403Y129461D01*
X118333Y129114D01*
Y113267D01*
X116381D01*
Y106734D01*
X117629D01*
X117836Y106234D01*
X117320Y105718D01*
X94368D01*
X93882Y105752D01*
X93882Y106218D01*
Y108500D01*
X89000D01*
X84118D01*
Y106094D01*
X84118Y105752D01*
X83684Y105594D01*
X81462D01*
X80900Y106156D01*
Y106382D01*
X80702Y107119D01*
X80321Y107781D01*
X79781Y108321D01*
X79119Y108702D01*
X78382Y108900D01*
X77618D01*
X76881Y108702D01*
X76219Y108321D01*
X75679Y107781D01*
X75298Y107119D01*
X75100Y106382D01*
Y105618D01*
X75298Y104881D01*
X75679Y104219D01*
X76219Y103679D01*
X76881Y103298D01*
X77618Y103100D01*
X78382D01*
X79025Y103272D01*
X79576Y102722D01*
X79826Y102554D01*
X80121Y102357D01*
X80121Y102357D01*
X80121Y102357D01*
X80765Y102229D01*
X80765Y102229D01*
X80765Y102229D01*
X85153D01*
Y101776D01*
X85221Y101434D01*
X85415Y101144D01*
X85705Y100950D01*
X86047Y100882D01*
X86277Y100927D01*
X86641Y100728D01*
X86739Y100640D01*
X86749Y100128D01*
X73876Y87255D01*
X73414Y87446D01*
Y124367D01*
X73344Y124718D01*
X73145Y125016D01*
X68387Y129774D01*
Y129988D01*
X68369Y130077D01*
Y134638D01*
X61631D01*
Y132780D01*
X55100D01*
X54749Y132711D01*
X54451Y132512D01*
X52857Y130918D01*
X51121D01*
Y133266D01*
X45382D01*
Y126734D01*
X47334D01*
Y125749D01*
X47403Y125398D01*
X47602Y125100D01*
X47823Y124880D01*
Y122588D01*
X47700Y122506D01*
X47381Y122028D01*
X47269Y121465D01*
Y118806D01*
X47381Y118243D01*
X47700Y117766D01*
X48177Y117447D01*
X48740Y117335D01*
X49303Y117447D01*
X49780Y117766D01*
X50099Y118243D01*
X50211Y118806D01*
Y121465D01*
X50099Y122028D01*
X49780Y122506D01*
X49658Y122588D01*
Y125260D01*
X49588Y125611D01*
X49389Y125909D01*
X49169Y126129D01*
Y126734D01*
X51121D01*
Y129082D01*
X53237D01*
X53588Y129152D01*
X53886Y129351D01*
X55480Y130945D01*
X61631D01*
Y129088D01*
X66612D01*
X66621Y129043D01*
X66820Y128745D01*
X71578Y123987D01*
Y82435D01*
X69931D01*
Y73565D01*
X71645D01*
X71648Y73549D01*
X71847Y73251D01*
X72145Y73052D01*
X72496Y72982D01*
X72929D01*
X73110Y72710D01*
X74739Y71082D01*
X74475Y70817D01*
X74085Y70142D01*
X73884Y69390D01*
Y68610D01*
X74085Y67858D01*
X74475Y67183D01*
X75026Y66632D01*
X75700Y66243D01*
X76453Y66041D01*
X77232D01*
X77985Y66243D01*
X78659Y66632D01*
X78924Y66897D01*
X81810Y64010D01*
X82356Y63646D01*
X83000Y63518D01*
X83000Y63518D01*
X103600D01*
X104244Y63646D01*
X104790Y64010D01*
X115597Y74818D01*
X124502D01*
X124513Y74789D01*
X125057Y74081D01*
X125766Y73537D01*
X126591Y73195D01*
X127476Y73079D01*
X139012D01*
X139897Y73195D01*
X140722Y73537D01*
X141431Y74081D01*
X141975Y74789D01*
X142316Y75615D01*
X142433Y76500D01*
X142316Y77385D01*
X141975Y78211D01*
X141431Y78919D01*
X140722Y79463D01*
X139897Y79805D01*
X139012Y79921D01*
X127476D01*
X126591Y79805D01*
X125766Y79463D01*
X125057Y78919D01*
X124513Y78211D01*
X124502Y78182D01*
X114900D01*
X114256Y78054D01*
X113710Y77690D01*
X113710Y77690D01*
X102903Y66882D01*
X83697D01*
X75490Y75090D01*
X75061Y75376D01*
Y78753D01*
X75094Y78915D01*
Y83714D01*
X89190Y97810D01*
X89554Y98356D01*
X89682Y99000D01*
X89554Y99644D01*
X89436Y99820D01*
X89490Y100007D01*
X90052Y100152D01*
X95853Y94351D01*
X96151Y94152D01*
X96502Y94082D01*
X109088D01*
Y91631D01*
X114638D01*
Y98369D01*
X113374D01*
X113167Y98869D01*
X114380Y100082D01*
X130749D01*
X131100Y100152D01*
X131398Y100351D01*
X134398Y103351D01*
X134597Y103649D01*
X134666Y104000D01*
Y106734D01*
X136619D01*
Y113267D01*
X130879D01*
Y106734D01*
X132831D01*
Y106030D01*
X132503D01*
X131896Y105779D01*
X131432Y105315D01*
X131181Y104708D01*
Y104052D01*
X131432Y103445D01*
X131664Y103213D01*
X130369Y101918D01*
X114000D01*
X113649Y101848D01*
X113351Y101649D01*
X111214Y99512D01*
X111015Y99214D01*
X110945Y98863D01*
Y98369D01*
X109088D01*
Y95918D01*
X96882D01*
X92362Y100437D01*
X92554Y100899D01*
X92830D01*
Y103027D01*
X92870Y103230D01*
Y103882D01*
X117700D01*
X118051Y103952D01*
X118349Y104151D01*
X119900Y105702D01*
X120099Y106000D01*
X120169Y106351D01*
Y106734D01*
X122121D01*
Y113267D01*
X120169D01*
Y128734D01*
X121169Y129734D01*
X121631Y129543D01*
Y129088D01*
X128369D01*
Y134638D01*
D02*
G37*
G36*
X144091Y133091D02*
X141500D01*
Y130500D01*
X144091D01*
Y133091D01*
D02*
G37*
G36*
X44219Y132867D02*
X42249D01*
Y130500D01*
X44219D01*
Y132867D01*
D02*
G37*
G36*
X41249D02*
X39279D01*
Y130500D01*
X41249D01*
Y132867D01*
D02*
G37*
G36*
X140500Y133091D02*
X137909D01*
Y130500D01*
X140500D01*
Y133091D01*
D02*
G37*
G36*
X14090Y132091D02*
X11500D01*
Y129500D01*
X14090D01*
Y132091D01*
D02*
G37*
G36*
X10500D02*
X7909D01*
Y129500D01*
X10500D01*
Y132091D01*
D02*
G37*
G36*
X44219Y129500D02*
X42249D01*
Y127134D01*
X44219D01*
Y129500D01*
D02*
G37*
G36*
X41249D02*
X39279D01*
Y127134D01*
X41249D01*
Y129500D01*
D02*
G37*
G36*
X144091D02*
X141500D01*
Y126909D01*
X144091D01*
Y129500D01*
D02*
G37*
G36*
X140500D02*
X137909D01*
Y126909D01*
X140500D01*
Y129500D01*
D02*
G37*
G36*
X14090Y128500D02*
X11500D01*
Y125909D01*
X14090D01*
Y128500D01*
D02*
G37*
G36*
X10500D02*
X7909D01*
Y125909D01*
X10500D01*
Y128500D01*
D02*
G37*
G36*
X62500Y126499D02*
Y124500D01*
X64499D01*
X64119Y125416D01*
X63416Y126119D01*
X62500Y126499D01*
D02*
G37*
G36*
X61500D02*
X60584Y126119D01*
X59881Y125416D01*
X59501Y124500D01*
X61500D01*
Y126499D01*
D02*
G37*
G36*
X64499Y123500D02*
X62500D01*
Y121501D01*
X63416Y121881D01*
X64119Y122584D01*
X64499Y123500D01*
D02*
G37*
G36*
X61500D02*
X59501D01*
X59881Y122584D01*
X60584Y121881D01*
X61500Y121501D01*
Y123500D01*
D02*
G37*
G36*
X45500Y122386D02*
Y120636D01*
X46063D01*
Y121465D01*
X45982Y121872D01*
X45752Y122217D01*
X45500Y122386D01*
D02*
G37*
G36*
X44500D02*
X44248Y122217D01*
X44018Y121872D01*
X43937Y121465D01*
Y120636D01*
X44500D01*
Y122386D01*
D02*
G37*
G36*
X46063Y119636D02*
X45500D01*
Y117886D01*
X45752Y118054D01*
X45982Y118399D01*
X46063Y118806D01*
Y119636D01*
D02*
G37*
G36*
X44500D02*
X43937D01*
Y118806D01*
X44018Y118399D01*
X44248Y118054D01*
X44500Y117886D01*
Y119636D01*
D02*
G37*
G36*
X92453Y116264D02*
Y115270D01*
X92469D01*
Y116224D01*
X92453Y116264D01*
D02*
G37*
G36*
X91453D02*
X91436Y116224D01*
Y115270D01*
X91453D01*
Y116264D01*
D02*
G37*
G36*
X29000Y116000D02*
Y114001D01*
X30999D01*
X30619Y114917D01*
X29916Y115621D01*
X29000Y116000D01*
D02*
G37*
G36*
X28000D02*
X27084Y115621D01*
X26381Y114917D01*
X26001Y114001D01*
X28000D01*
Y116000D01*
D02*
G37*
G36*
X78500Y115499D02*
Y113500D01*
X80499D01*
X80119Y114416D01*
X79416Y115119D01*
X78500Y115499D01*
D02*
G37*
G36*
X77500D02*
X76584Y115119D01*
X75881Y114416D01*
X75501Y113500D01*
X77500D01*
Y115499D01*
D02*
G37*
G36*
X92469Y114270D02*
X92453D01*
Y113276D01*
X92469Y113316D01*
Y114270D01*
D02*
G37*
G36*
X91453D02*
X91436D01*
Y113316D01*
X91453Y113276D01*
Y114270D01*
D02*
G37*
G36*
X101500Y114499D02*
Y112500D01*
X103499D01*
X103119Y113416D01*
X102416Y114119D01*
X101500Y114499D01*
D02*
G37*
G36*
X100500D02*
X99584Y114119D01*
X98881Y113416D01*
X98501Y112500D01*
X100500D01*
Y114499D01*
D02*
G37*
G36*
X45500Y114114D02*
Y112364D01*
X46063D01*
Y113194D01*
X45982Y113601D01*
X45752Y113946D01*
X45500Y114114D01*
D02*
G37*
G36*
X44500D02*
X44248Y113946D01*
X44018Y113601D01*
X43937Y113194D01*
Y112364D01*
X44500D01*
Y114114D01*
D02*
G37*
G36*
X30999Y113001D02*
X29000D01*
Y111002D01*
X29916Y111382D01*
X30619Y112085D01*
X30999Y113001D01*
D02*
G37*
G36*
X28000D02*
X26001D01*
X26381Y112085D01*
X27084Y111382D01*
X28000Y111002D01*
Y113001D01*
D02*
G37*
G36*
X80499Y112500D02*
X78500D01*
Y110501D01*
X79416Y110881D01*
X80119Y111584D01*
X80499Y112500D01*
D02*
G37*
G36*
X77500D02*
X75501D01*
X75881Y111584D01*
X76584Y110881D01*
X77500Y110501D01*
Y112500D01*
D02*
G37*
G36*
X142721Y112866D02*
X140751D01*
Y110500D01*
X142721D01*
Y112866D01*
D02*
G37*
G36*
X139751D02*
X137781D01*
Y110500D01*
X139751D01*
Y112866D01*
D02*
G37*
G36*
X103499Y111500D02*
X101500D01*
Y109501D01*
X102416Y109881D01*
X103119Y110584D01*
X103499Y111500D01*
D02*
G37*
G36*
X100500D02*
X98501D01*
X98881Y110584D01*
X99584Y109881D01*
X100500Y109501D01*
Y111500D01*
D02*
G37*
G36*
X68369Y142912D02*
X61631D01*
Y137362D01*
X68369D01*
Y139220D01*
X70483D01*
X71576Y138126D01*
X71601Y138065D01*
X72065Y137601D01*
X72082Y137594D01*
Y131100D01*
X72152Y130749D01*
X72351Y130451D01*
X85130Y117673D01*
Y114770D01*
X85153Y114654D01*
Y113316D01*
X85221Y112974D01*
X85372Y112748D01*
X85298Y112479D01*
X85166Y112248D01*
X84118D01*
Y109500D01*
X89000D01*
X93882D01*
Y112248D01*
X90865D01*
X90733Y112479D01*
X90660Y112748D01*
X90811Y112974D01*
X90879Y113316D01*
Y114654D01*
X90902Y114770D01*
Y125703D01*
X91230D01*
X91837Y125954D01*
X92301Y126418D01*
X92552Y127025D01*
Y127681D01*
X92301Y128288D01*
X92069Y128520D01*
X93282Y129733D01*
X93380Y129879D01*
X98267D01*
Y135619D01*
X91733D01*
Y130868D01*
X91716Y130779D01*
Y130762D01*
X89335Y128382D01*
X89316Y128353D01*
X89281Y128341D01*
X88737Y128387D01*
X88665Y128496D01*
X84649Y132512D01*
X84351Y132711D01*
X84000Y132780D01*
X83369D01*
Y134638D01*
X76631D01*
Y129474D01*
X76131Y129267D01*
X73918Y131480D01*
Y137594D01*
X73935Y137601D01*
X74399Y138065D01*
X74650Y138672D01*
Y139328D01*
X74399Y139935D01*
X73935Y140399D01*
X73328Y140650D01*
X72672D01*
X72065Y140399D01*
X71982Y140316D01*
X71512Y140786D01*
X71214Y140985D01*
X70863Y141055D01*
X68369D01*
Y142912D01*
D02*
G37*
G36*
X63500Y109499D02*
Y107500D01*
X65499D01*
X65119Y108416D01*
X64416Y109119D01*
X63500Y109499D01*
D02*
G37*
G36*
X62500D02*
X61584Y109119D01*
X60881Y108416D01*
X60501Y107500D01*
X62500D01*
Y109499D01*
D02*
G37*
G36*
X142721Y109500D02*
X140751D01*
Y107133D01*
X142721D01*
Y109500D01*
D02*
G37*
G36*
X139751D02*
X137781D01*
Y107133D01*
X139751D01*
Y109500D01*
D02*
G37*
G36*
X101837Y148918D02*
X31000D01*
X30649Y148848D01*
X30351Y148649D01*
X23851Y142149D01*
X23652Y141851D01*
X23582Y141500D01*
Y111600D01*
X23652Y111249D01*
X23851Y110951D01*
X25518Y109284D01*
X25451Y109035D01*
X25293Y108802D01*
X24610D01*
X23858Y108600D01*
X23183Y108210D01*
X22632Y107659D01*
X22243Y106985D01*
X22041Y106232D01*
Y105453D01*
X22243Y104701D01*
X22632Y104026D01*
X23183Y103475D01*
X23858Y103085D01*
X24610Y102884D01*
X25390D01*
X25540Y102924D01*
X27157Y101306D01*
X27157Y101306D01*
X27703Y100942D01*
X28347Y100814D01*
X28347Y100814D01*
X31565D01*
Y99931D01*
X40435D01*
Y105061D01*
X31565D01*
Y104178D01*
X29043D01*
X27919Y105303D01*
X27959Y105453D01*
Y106232D01*
X27757Y106985D01*
X27701Y107082D01*
X27990Y107582D01*
X48240D01*
X48591Y107652D01*
X48889Y107851D01*
X49389Y108351D01*
X49588Y108649D01*
X49658Y109000D01*
Y109092D01*
X50183D01*
Y114637D01*
X47297D01*
Y109418D01*
X46064D01*
X46015Y109475D01*
X45842Y109918D01*
X45982Y110128D01*
X46063Y110535D01*
Y111364D01*
X45000D01*
X43937D01*
Y110535D01*
X44018Y110128D01*
X44158Y109918D01*
X43985Y109475D01*
X43936Y109418D01*
X42850D01*
X42583Y109918D01*
X42619Y109972D01*
X42731Y110535D01*
Y113194D01*
X42619Y113757D01*
X42300Y114234D01*
X41823Y114553D01*
X41260Y114665D01*
X40697Y114553D01*
X40293Y114283D01*
X38015D01*
X36598Y115700D01*
X36702Y115881D01*
X36900Y116618D01*
Y117382D01*
X36702Y118119D01*
X36321Y118781D01*
X35781Y119321D01*
X35119Y119702D01*
X34382Y119900D01*
X33618D01*
X32881Y119702D01*
X32219Y119321D01*
X31679Y118781D01*
X31298Y118119D01*
X31100Y117382D01*
Y116618D01*
X31298Y115881D01*
X31679Y115219D01*
X32219Y114679D01*
X32881Y114298D01*
X33618Y114100D01*
X34382D01*
X35119Y114298D01*
X35300Y114402D01*
X36985Y112717D01*
X37283Y112518D01*
X37634Y112448D01*
X39789D01*
Y110535D01*
X39901Y109972D01*
X39937Y109918D01*
X39669Y109418D01*
X27980D01*
X25418Y111980D01*
Y117673D01*
X25918Y117880D01*
X26199Y117599D01*
X26860Y117217D01*
X27598Y117019D01*
X28361D01*
X29099Y117217D01*
X29760Y117599D01*
X30300Y118139D01*
X30682Y118800D01*
X30879Y119538D01*
Y120301D01*
X30804Y120582D01*
X31188Y121082D01*
X34835D01*
X36431Y119487D01*
X36729Y119288D01*
X37080Y119218D01*
X39789D01*
Y118806D01*
X39901Y118243D01*
X40220Y117766D01*
X40697Y117447D01*
X41260Y117335D01*
X41823Y117447D01*
X42300Y117766D01*
X42619Y118243D01*
X42731Y118806D01*
Y121465D01*
X42619Y122028D01*
X42300Y122506D01*
X41823Y122825D01*
X41260Y122937D01*
X40697Y122825D01*
X40220Y122506D01*
X39901Y122028D01*
X39789Y121465D01*
Y121053D01*
X37460D01*
X35864Y122649D01*
X35567Y122848D01*
X35216Y122918D01*
X30000D01*
X29649Y122848D01*
X29351Y122649D01*
X29242Y122539D01*
X29099Y122622D01*
X28361Y122819D01*
X27598D01*
X26860Y122622D01*
X26199Y122240D01*
X25918Y121959D01*
X25418Y122166D01*
Y141120D01*
X31380Y147082D01*
X101457D01*
X106631Y141908D01*
Y138666D01*
X103351Y135386D01*
X103152Y135088D01*
X103082Y134737D01*
Y129379D01*
Y128000D01*
Y120286D01*
X103152Y119935D01*
X103351Y119637D01*
X103937Y119051D01*
X104235Y118852D01*
X104586Y118782D01*
X109620D01*
X111831Y116571D01*
Y113267D01*
X109879D01*
Y106734D01*
X115619D01*
Y113267D01*
X113666D01*
Y116951D01*
X113597Y117302D01*
X113398Y117600D01*
X110649Y120349D01*
X110351Y120548D01*
X110000Y120618D01*
X104966D01*
X104918Y120666D01*
Y128000D01*
Y134357D01*
X107923Y137362D01*
X113369D01*
Y142912D01*
X108209D01*
X108180Y142955D01*
X107234Y143901D01*
X107399Y144065D01*
X107650Y144672D01*
Y145328D01*
X107399Y145935D01*
X106935Y146399D01*
X106328Y146650D01*
X105672D01*
X105065Y146399D01*
X104901Y146234D01*
X102486Y148649D01*
X102188Y148848D01*
X101837Y148918D01*
D02*
G37*
G36*
X65499Y106500D02*
X63500D01*
Y104501D01*
X64416Y104881D01*
X65119Y105584D01*
X65499Y106500D01*
D02*
G37*
G36*
X62500D02*
X60501D01*
X60881Y105584D01*
X61584Y104881D01*
X62500Y104501D01*
Y106500D01*
D02*
G37*
G36*
X140500Y105499D02*
Y103500D01*
X142499D01*
X142119Y104416D01*
X141416Y105119D01*
X140500Y105499D01*
D02*
G37*
G36*
X139500D02*
X138584Y105119D01*
X137881Y104416D01*
X137501Y103500D01*
X139500D01*
Y105499D01*
D02*
G37*
G36*
X142499Y102500D02*
X140500D01*
Y100501D01*
X141416Y100881D01*
X142119Y101584D01*
X142499Y102500D01*
D02*
G37*
G36*
X139500D02*
X137501D01*
X137881Y101584D01*
X138584Y100881D01*
X139500Y100501D01*
Y102500D01*
D02*
G37*
G36*
X142721Y97866D02*
X140751D01*
Y95500D01*
X142721D01*
Y97866D01*
D02*
G37*
G36*
X139751D02*
X137781D01*
Y95500D01*
X139751D01*
Y97866D01*
D02*
G37*
G36*
X142721Y94500D02*
X140751D01*
Y92133D01*
X142721D01*
Y94500D01*
D02*
G37*
G36*
X139751D02*
X137781D01*
Y92133D01*
X139751D01*
Y94500D01*
D02*
G37*
G36*
X122912Y98369D02*
X117362D01*
Y91631D01*
X122912D01*
Y94082D01*
X130879D01*
Y91733D01*
X136619D01*
Y98267D01*
X130879D01*
Y95918D01*
X128650D01*
Y96328D01*
X128399Y96935D01*
X127935Y97399D01*
X127328Y97650D01*
X126672D01*
X126065Y97399D01*
X125601Y96935D01*
X125350Y96328D01*
Y95918D01*
X122912D01*
Y98369D01*
D02*
G37*
G36*
X40035Y91669D02*
X36500D01*
Y90004D01*
X40035D01*
Y91669D01*
D02*
G37*
G36*
X35500D02*
X31965D01*
Y90004D01*
X35500D01*
Y91669D01*
D02*
G37*
G36*
X40035Y89004D02*
X36500D01*
Y87339D01*
X40035D01*
Y89004D01*
D02*
G37*
G36*
X35500D02*
X31965D01*
Y87339D01*
X35500D01*
Y89004D01*
D02*
G37*
G36*
X27559Y88716D02*
X25500D01*
Y86657D01*
X27559D01*
Y88716D01*
D02*
G37*
G36*
X24500D02*
X22441D01*
Y86657D01*
X24500D01*
Y88716D01*
D02*
G37*
G36*
X27559Y85657D02*
X25500D01*
Y83598D01*
X27559D01*
Y85657D01*
D02*
G37*
G36*
X24500D02*
X22441D01*
Y83598D01*
X24500D01*
Y85657D01*
D02*
G37*
G36*
X61669Y82035D02*
X60004D01*
Y78500D01*
X61669D01*
Y82035D01*
D02*
G37*
G36*
X59004D02*
X57339D01*
Y78500D01*
X59004D01*
Y82035D01*
D02*
G37*
G36*
X94524Y79518D02*
X89256D01*
Y77000D01*
X97476D01*
X97439Y77281D01*
X97137Y78009D01*
X96658Y78634D01*
X96033Y79114D01*
X95305Y79415D01*
X94524Y79518D01*
D02*
G37*
G36*
X88256D02*
X82988D01*
X82207Y79415D01*
X81479Y79114D01*
X80854Y78634D01*
X80375Y78009D01*
X80073Y77281D01*
X80036Y77000D01*
X88256D01*
Y79518D01*
D02*
G37*
G36*
X61669Y77500D02*
X60004D01*
Y73965D01*
X61669D01*
Y77500D01*
D02*
G37*
G36*
X59004D02*
X57339D01*
Y73965D01*
X59004D01*
Y77500D01*
D02*
G37*
G36*
X97476Y76000D02*
X89256D01*
Y73482D01*
X94524D01*
X95305Y73585D01*
X96033Y73886D01*
X96658Y74366D01*
X97137Y74991D01*
X97439Y75719D01*
X97476Y76000D01*
D02*
G37*
G36*
X88256D02*
X80036D01*
X80073Y75719D01*
X80375Y74991D01*
X80854Y74366D01*
X81479Y73886D01*
X82207Y73585D01*
X82988Y73482D01*
X88256D01*
Y76000D01*
D02*
G37*
G36*
X100500Y73499D02*
Y71500D01*
X102499D01*
X102119Y72416D01*
X101416Y73119D01*
X100500Y73499D01*
D02*
G37*
G36*
X99500D02*
X98584Y73119D01*
X97881Y72416D01*
X97501Y71500D01*
X99500D01*
Y73499D01*
D02*
G37*
G36*
X59716Y71559D02*
X57657D01*
Y69500D01*
X59716D01*
Y71559D01*
D02*
G37*
G36*
X56657D02*
X54598D01*
Y69500D01*
X56657D01*
Y71559D01*
D02*
G37*
G36*
X102499Y70500D02*
X100500D01*
Y68501D01*
X101416Y68881D01*
X102119Y69584D01*
X102499Y70500D01*
D02*
G37*
G36*
X99500D02*
X97501D01*
X97881Y69584D01*
X98584Y68881D01*
X99500Y68501D01*
Y70500D01*
D02*
G37*
G36*
X59716Y68500D02*
X57657D01*
Y66441D01*
X59716D01*
Y68500D01*
D02*
G37*
G36*
X56657D02*
X54598D01*
Y66441D01*
X56657D01*
Y68500D01*
D02*
G37*
G36*
X125500Y33499D02*
Y31500D01*
X127499D01*
X127119Y32416D01*
X126416Y33119D01*
X125500Y33499D01*
D02*
G37*
G36*
X124500D02*
X123584Y33119D01*
X122881Y32416D01*
X122501Y31500D01*
X124500D01*
Y33499D01*
D02*
G37*
G36*
X127499Y30500D02*
X125500D01*
Y28501D01*
X126416Y28881D01*
X127119Y29584D01*
X127499Y30500D01*
D02*
G37*
G36*
X124500D02*
X122501D01*
X122881Y29584D01*
X123584Y28881D01*
X124500Y28501D01*
Y30500D01*
D02*
G37*
G36*
X58067Y28571D02*
X55114D01*
X54382Y28425D01*
X53761Y28010D01*
X53347Y27390D01*
X53201Y26658D01*
Y21342D01*
X53347Y20610D01*
X53761Y19990D01*
X54382Y19575D01*
X55114Y19429D01*
X58067D01*
X58799Y19575D01*
X59420Y19990D01*
X59834Y20610D01*
X59980Y21342D01*
Y22318D01*
X114279D01*
X124183Y12414D01*
X124171Y12386D01*
X124055Y11500D01*
X124171Y10615D01*
X124513Y9789D01*
X125057Y9081D01*
X125766Y8537D01*
X126591Y8195D01*
X127476Y8079D01*
X139012D01*
X139897Y8195D01*
X140722Y8537D01*
X141431Y9081D01*
X141975Y9789D01*
X142316Y10615D01*
X142433Y11500D01*
X142316Y12386D01*
X141975Y13211D01*
X141431Y13919D01*
X140722Y14463D01*
X139897Y14805D01*
X139012Y14921D01*
X127476D01*
X126591Y14805D01*
X126562Y14793D01*
X116166Y25190D01*
X115620Y25554D01*
X114976Y25682D01*
X59980D01*
Y26658D01*
X59834Y27390D01*
X59420Y28010D01*
X58799Y28425D01*
X58067Y28571D01*
D02*
G37*
G36*
X34445D02*
X31492D01*
X30760Y28425D01*
X30139Y28010D01*
X29725Y27390D01*
X29579Y26658D01*
Y21342D01*
X29725Y20610D01*
X30139Y19990D01*
X30760Y19575D01*
X31286Y19470D01*
Y16126D01*
X31414Y15482D01*
X31779Y14936D01*
X40209Y6506D01*
Y4020D01*
X40355Y3288D01*
X40769Y2667D01*
X41390Y2252D01*
X42122Y2107D01*
X47437D01*
X48169Y2252D01*
X48790Y2667D01*
X49205Y3288D01*
X49350Y4020D01*
Y4318D01*
X81025D01*
X81668Y4446D01*
X82214Y4810D01*
X83679Y6275D01*
X83679Y6275D01*
X84043Y6821D01*
X84171Y7464D01*
Y8079D01*
X94524D01*
X95409Y8195D01*
X96234Y8537D01*
X96943Y9081D01*
X97487Y9789D01*
X97829Y10615D01*
X97945Y11500D01*
X97829Y12386D01*
X97487Y13211D01*
X96943Y13919D01*
X96234Y14463D01*
X95409Y14805D01*
X94524Y14921D01*
X82988D01*
X82103Y14805D01*
X81278Y14463D01*
X80569Y13919D01*
X80025Y13211D01*
X79684Y12386D01*
X79567Y11500D01*
X79684Y10615D01*
X80025Y9789D01*
X80569Y9081D01*
X80807Y8898D01*
Y8161D01*
X80328Y7682D01*
X49209D01*
X49205Y7705D01*
X48790Y8325D01*
X48169Y8740D01*
X47437Y8885D01*
X42588D01*
X34651Y16823D01*
Y19470D01*
X35177Y19575D01*
X35798Y19990D01*
X36213Y20610D01*
X36358Y21342D01*
Y26658D01*
X36213Y27390D01*
X35798Y28010D01*
X35177Y28425D01*
X34445Y28571D01*
D02*
G37*
%LPD*%
G36*
X85931Y128634D02*
X85699Y128402D01*
X85448Y127795D01*
Y127139D01*
X85699Y126532D01*
X86164Y126068D01*
X86770Y125817D01*
X87098D01*
Y118989D01*
X86982Y118906D01*
X86598Y118799D01*
X76810Y128588D01*
X77017Y129088D01*
X83369D01*
Y130489D01*
X83869Y130696D01*
X85931Y128634D01*
D02*
G37*
D18*
X59504Y78000D02*
D03*
X72496D02*
D03*
D20*
X141000Y130000D02*
D03*
X11000Y129000D02*
D03*
D21*
X141000Y140000D02*
D03*
X11000Y139000D02*
D03*
D22*
X25000Y105843D02*
D03*
X76843Y69000D02*
D03*
D23*
X25000Y86157D02*
D03*
D26*
X57157Y69000D02*
D03*
D30*
X119131Y130945D02*
D03*
X132831Y104380D02*
D03*
X106000Y145000D02*
D03*
X90902Y127353D02*
D03*
X127000Y96000D02*
D03*
X130000Y140000D02*
D03*
X73000Y139000D02*
D03*
X87098Y127467D02*
D03*
D31*
X73411Y84411D02*
X88000Y99000D01*
X73411Y78915D02*
Y84411D01*
X74300Y73900D02*
X83000Y65200D01*
X56591Y24000D02*
X56960D01*
X28347Y102496D02*
X36000D01*
X25000Y105843D02*
X28347Y102496D01*
X80765Y103911D02*
X85275D01*
X78676Y106000D02*
X80765Y103911D01*
X72496Y78000D02*
X73411Y78915D01*
X78000Y106000D02*
X78676D01*
X43598Y5496D02*
X44780D01*
X32969Y16126D02*
X43598Y5496D01*
X32969Y16126D02*
Y24000D01*
X44780Y5496D02*
X45284Y6000D01*
X81025D01*
X56960Y24000D02*
X114976D01*
X127476Y11500D01*
X82489Y7464D02*
Y9890D01*
X81025Y6000D02*
X82489Y7464D01*
X84099Y11500D02*
X88756D01*
X82489Y9890D02*
X84099Y11500D01*
X127476D02*
X133244D01*
X83000Y65200D02*
X103600D01*
X114900Y76500D01*
X133244D01*
D32*
X90007Y101495D02*
Y103208D01*
X89984Y103230D02*
X90007Y103208D01*
Y101495D02*
X96502Y95000D01*
X65594Y131863D02*
X67469Y129988D01*
X65000Y131863D02*
X65594D01*
X67469Y129394D02*
Y129988D01*
Y129394D02*
X72496Y124367D01*
Y78000D02*
Y124367D01*
X24500Y111600D02*
Y141500D01*
X31000Y148000D02*
X101837D01*
X24500Y141500D02*
X31000Y148000D01*
X101837D02*
X107531Y142306D01*
X96502Y95000D02*
X111863D01*
X109550Y140287D02*
X111145Y138692D01*
X107531Y142012D02*
X109256Y140287D01*
X109550D01*
X107531Y142012D02*
Y142306D01*
X104000Y134737D02*
X109400Y140137D01*
X88016Y114770D02*
Y127847D01*
X84000Y131863D02*
X88016Y127847D01*
X92633Y130779D02*
X94603Y132749D01*
X92633Y130382D02*
Y130779D01*
X94603Y132749D02*
X95000D01*
X89984Y127733D02*
X92633Y130382D01*
X89984Y114770D02*
Y127733D01*
X95000Y132749D02*
X95932Y133681D01*
X104000Y129379D02*
Y134737D01*
Y128000D02*
Y129000D01*
Y120286D02*
Y128000D01*
Y129000D02*
Y129379D01*
X104586Y119700D02*
X110000D01*
X104000Y120286D02*
X104586Y119700D01*
X109400Y140137D02*
X110000D01*
X85275Y103911D02*
X86047D01*
X110000Y131863D02*
X122000D01*
X91953Y104800D02*
X117700D01*
X72496Y73900D02*
X74300D01*
X112749Y110000D02*
Y116951D01*
X110000Y119700D02*
X112749Y116951D01*
X80000Y131863D02*
X84000D01*
X24500Y111600D02*
X27600Y108500D01*
X48240D01*
X48740Y109000D01*
Y111864D01*
X111863Y95000D02*
Y98863D01*
X114000Y101000D01*
X130749D01*
X133749Y104000D01*
Y110000D01*
X120137Y95000D02*
X133749D01*
X125000Y140137D02*
X133837D01*
X133900Y140200D01*
X140800D01*
X141000Y140000D01*
X65000Y140137D02*
X70863D01*
X73000Y138000D01*
Y131100D02*
Y138000D01*
Y131100D02*
X86047Y118053D01*
Y114770D02*
Y118053D01*
X48740Y120136D02*
Y125260D01*
X48251Y125749D02*
X48740Y125260D01*
X48251Y125749D02*
Y130000D01*
X55100Y131863D02*
X65000D01*
X53237Y130000D02*
X55100Y131863D01*
X48251Y130000D02*
X53237D01*
X122000Y131863D02*
X124326D01*
X119251Y129114D02*
X122000Y131863D01*
X119251Y110000D02*
Y129114D01*
X124326Y131863D02*
X125000D01*
X119251Y106351D02*
Y110000D01*
X117700Y104800D02*
X119251Y106351D01*
X91953Y103230D02*
Y104800D01*
X86047Y103230D02*
Y103911D01*
X35216Y122000D02*
X37080Y120136D01*
X30000Y122000D02*
X35216D01*
X37080Y120136D02*
X41260D01*
X27979Y119979D02*
X30000Y122000D01*
X27979Y119919D02*
Y119979D01*
X37634Y113366D02*
X40758D01*
X34000Y117000D02*
X37634Y113366D01*
X41260Y111864D02*
Y112864D01*
X40758Y113366D02*
X41260Y112864D01*
X72496Y73900D02*
Y78000D01*
D33*
X44780Y5496D02*
D03*
D34*
X32969Y24000D02*
D03*
X56591D02*
D03*
D35*
X32000Y140000D02*
D03*
X140000Y103000D02*
D03*
X88000Y140000D02*
D03*
X101000Y112000D02*
D03*
X78000Y106000D02*
D03*
X27979Y119919D02*
D03*
X34000Y117000D02*
D03*
X28500Y113501D02*
D03*
X100000Y71000D02*
D03*
X62000Y124000D02*
D03*
X63000Y107000D02*
D03*
X78000Y113000D02*
D03*
X125000Y31000D02*
D03*
D36*
X88756Y11500D02*
D03*
Y76500D02*
D03*
X133244Y11500D02*
D03*
Y76500D02*
D03*
D37*
X36000Y102496D02*
D03*
Y89504D02*
D03*
D38*
X89000Y109000D02*
D03*
D39*
X91953Y103230D02*
D03*
D40*
X89984D02*
D03*
X88016D02*
D03*
X86047D02*
D03*
Y114770D02*
D03*
X88016D02*
D03*
X89984D02*
D03*
X91953D02*
D03*
D41*
X48740Y120136D02*
D03*
X45000D02*
D03*
X41260D02*
D03*
Y111864D02*
D03*
X45000D02*
D03*
D42*
X48740D02*
D03*
D43*
X65000Y131863D02*
D03*
Y140137D02*
D03*
X80000D02*
D03*
Y131863D02*
D03*
X110000Y140137D02*
D03*
Y131863D02*
D03*
X125000D02*
D03*
Y140137D02*
D03*
D44*
X119251Y110000D02*
D03*
X112749D02*
D03*
X41749Y130000D02*
D03*
X48251D02*
D03*
X133749Y95000D02*
D03*
X140251D02*
D03*
X133749Y110000D02*
D03*
X140251D02*
D03*
D45*
X95000Y132749D02*
D03*
Y139251D02*
D03*
D46*
X111863Y95000D02*
D03*
X120137D02*
D03*
D47*
X88000Y101107D02*
Y103214D01*
X88016Y103230D01*
D48*
X88000Y99000D02*
Y101107D01*
M02*
