G04*
G04 #@! TF.GenerationSoftware,Altium Limited,Altium Designer,22.3.1 (43)*
G04*
G04 Layer_Physical_Order=1*
G04 Layer_Color=255*
%FSLAX25Y25*%
%MOIN*%
G70*
G04*
G04 #@! TF.SameCoordinates,8E878BB6-4DE7-4028-B4E9-A3CA9BB4B007*
G04*
G04*
G04 #@! TF.FilePolarity,Positive*
G04*
G01*
G75*
%ADD17R,0.06772X0.12598*%
%ADD18R,0.04331X0.08071*%
%ADD20R,0.06181X0.06181*%
%ADD21C,0.06181*%
%ADD22C,0.05118*%
%ADD23R,0.05118X0.05118*%
%ADD26R,0.05118X0.05118*%
%ADD28R,0.11417X0.21260*%
%ADD29R,0.04134X0.05709*%
%ADD30C,0.02500*%
%ADD31C,0.02500*%
%ADD32C,0.01000*%
G04:AMPARAMS|DCode=33|XSize=82.68mil|YSize=59.06mil|CornerRadius=14.76mil|HoleSize=0mil|Usage=FLASHONLY|Rotation=180.000|XOffset=0mil|YOffset=0mil|HoleType=Round|Shape=RoundedRectangle|*
%AMROUNDEDRECTD33*
21,1,0.08268,0.02953,0,0,180.0*
21,1,0.05315,0.05906,0,0,180.0*
1,1,0.02953,-0.02657,0.01476*
1,1,0.02953,0.02657,0.01476*
1,1,0.02953,0.02657,-0.01476*
1,1,0.02953,-0.02657,-0.01476*
%
%ADD33ROUNDEDRECTD33*%
G04:AMPARAMS|DCode=34|XSize=82.68mil|YSize=59.06mil|CornerRadius=14.76mil|HoleSize=0mil|Usage=FLASHONLY|Rotation=90.000|XOffset=0mil|YOffset=0mil|HoleType=Round|Shape=RoundedRectangle|*
%AMROUNDEDRECTD34*
21,1,0.08268,0.02953,0,0,90.0*
21,1,0.05315,0.05906,0,0,90.0*
1,1,0.02953,0.01476,0.02657*
1,1,0.02953,0.01476,-0.02657*
1,1,0.02953,-0.01476,-0.02657*
1,1,0.02953,-0.01476,0.02657*
%
%ADD34ROUNDEDRECTD34*%
%ADD35C,0.05000*%
G36*
X150000Y0D02*
X0D01*
Y150000D01*
X150000D01*
Y0D01*
D02*
G37*
%LPC*%
G36*
X88500Y142499D02*
Y140500D01*
X90499D01*
X90119Y141416D01*
X89416Y142119D01*
X88500Y142499D01*
D02*
G37*
G36*
X87500D02*
X86584Y142119D01*
X85881Y141416D01*
X85501Y140500D01*
X87500D01*
Y142499D01*
D02*
G37*
G36*
X32500D02*
Y140500D01*
X34499D01*
X34119Y141416D01*
X33416Y142119D01*
X32500Y142499D01*
D02*
G37*
G36*
X31500D02*
X30584Y142119D01*
X29881Y141416D01*
X29501Y140500D01*
X31500D01*
Y142499D01*
D02*
G37*
G36*
X90499Y139500D02*
X88500D01*
Y137501D01*
X89416Y137881D01*
X90119Y138584D01*
X90499Y139500D01*
D02*
G37*
G36*
X87500D02*
X85501D01*
X85881Y138584D01*
X86584Y137881D01*
X87500Y137501D01*
Y139500D01*
D02*
G37*
G36*
X34499D02*
X32500D01*
Y137501D01*
X33416Y137881D01*
X34119Y138584D01*
X34499Y139500D01*
D02*
G37*
G36*
X31500D02*
X29501D01*
X29881Y138584D01*
X30584Y137881D01*
X31500Y137501D01*
Y139500D01*
D02*
G37*
G36*
X141460Y143491D02*
X140541D01*
X139653Y143253D01*
X138857Y142793D01*
X138207Y142143D01*
X137747Y141347D01*
X137509Y140460D01*
Y139541D01*
X137747Y138653D01*
X138207Y137857D01*
X138857Y137207D01*
X139653Y136747D01*
X140541Y136509D01*
X141460D01*
X142347Y136747D01*
X143143Y137207D01*
X143793Y137857D01*
X144253Y138653D01*
X144491Y139541D01*
Y140460D01*
X144253Y141347D01*
X143793Y142143D01*
X143143Y142793D01*
X142347Y143253D01*
X141460Y143491D01*
D02*
G37*
G36*
X88500Y136146D02*
Y135500D01*
X89146D01*
X89060Y135708D01*
X88708Y136060D01*
X88500Y136146D01*
D02*
G37*
G36*
X87500D02*
X87292Y136060D01*
X86940Y135708D01*
X86854Y135500D01*
X87500D01*
Y136146D01*
D02*
G37*
G36*
X55168Y138699D02*
X47596D01*
Y134682D01*
X43503D01*
X43399Y134935D01*
X42935Y135399D01*
X42328Y135650D01*
X41672D01*
X41065Y135399D01*
X40601Y134935D01*
X40497Y134682D01*
X38109D01*
Y136254D01*
X33175D01*
Y129746D01*
X34082D01*
Y119900D01*
X33618D01*
X32881Y119702D01*
X32219Y119321D01*
X31679Y118781D01*
X31298Y118119D01*
X31100Y117382D01*
Y116618D01*
X31298Y115881D01*
X31679Y115219D01*
X32219Y114679D01*
X32881Y114298D01*
X33618Y114100D01*
X34382D01*
X35119Y114298D01*
X35781Y114679D01*
X36321Y115219D01*
X36702Y115881D01*
X36900Y116618D01*
Y117382D01*
X36702Y118119D01*
X36321Y118781D01*
X35918Y119184D01*
Y128050D01*
X36380Y128241D01*
X38318Y126303D01*
Y113697D01*
X32146Y107525D01*
X27446D01*
X27368Y107659D01*
X26817Y108210D01*
X26142Y108600D01*
X25390Y108802D01*
X24610D01*
X23858Y108600D01*
X23183Y108210D01*
X22632Y107659D01*
X22243Y106985D01*
X22041Y106232D01*
Y105453D01*
X22243Y104701D01*
X22632Y104026D01*
X23183Y103475D01*
X23858Y103085D01*
X24610Y102884D01*
X25390D01*
X26142Y103085D01*
X26817Y103475D01*
X27368Y104026D01*
X27446Y104160D01*
X32843D01*
X33486Y104288D01*
X34032Y104653D01*
X41190Y111810D01*
X41554Y112356D01*
X41682Y113000D01*
Y127000D01*
X41682Y127000D01*
X41554Y127644D01*
X41190Y128190D01*
X41190Y128190D01*
X38561Y130818D01*
X38769Y131318D01*
X47596D01*
Y125301D01*
X55168D01*
Y138699D01*
D02*
G37*
G36*
X89146Y134500D02*
X88500D01*
Y133854D01*
X88708Y133940D01*
X89060Y134292D01*
X89146Y134500D01*
D02*
G37*
G36*
X87500D02*
X86854D01*
X86940Y134292D01*
X87292Y133940D01*
X87500Y133854D01*
Y134500D01*
D02*
G37*
G36*
X144091Y133091D02*
X141500D01*
Y130500D01*
X144091D01*
Y133091D01*
D02*
G37*
G36*
X140500D02*
X137909D01*
Y130500D01*
X140500D01*
Y133091D01*
D02*
G37*
G36*
X14090Y132091D02*
X11500D01*
Y129500D01*
X14090D01*
Y132091D01*
D02*
G37*
G36*
X10500D02*
X7909D01*
Y129500D01*
X10500D01*
Y132091D01*
D02*
G37*
G36*
X144091Y129500D02*
X141500D01*
Y126909D01*
X144091D01*
Y129500D01*
D02*
G37*
G36*
X140500D02*
X137909D01*
Y126909D01*
X140500D01*
Y129500D01*
D02*
G37*
G36*
X14090Y128500D02*
X11500D01*
Y125909D01*
X14090D01*
Y128500D01*
D02*
G37*
G36*
X10500D02*
X7909D01*
Y125909D01*
X10500D01*
Y128500D01*
D02*
G37*
G36*
X62500Y126499D02*
Y124500D01*
X64499D01*
X64119Y125416D01*
X63416Y126119D01*
X62500Y126499D01*
D02*
G37*
G36*
X61500D02*
X60584Y126119D01*
X59881Y125416D01*
X59501Y124500D01*
X61500D01*
Y126499D01*
D02*
G37*
G36*
X80404Y138699D02*
X72832D01*
Y128633D01*
X71569D01*
X70925Y128505D01*
X70379Y128140D01*
X70379Y128140D01*
X64476Y122237D01*
X64119Y122584D01*
X64499Y123500D01*
X62500D01*
Y121501D01*
X63416Y121881D01*
X63763Y121525D01*
X56314Y114075D01*
X55950Y113530D01*
X55822Y112886D01*
Y110435D01*
X54939D01*
Y101565D01*
X57690D01*
X65318Y93937D01*
Y54000D01*
X65446Y53356D01*
X65810Y52810D01*
X88328Y30293D01*
X88328Y30293D01*
X88874Y29928D01*
X89518Y29800D01*
X89518Y29800D01*
X91403D01*
Y19970D01*
X103621D01*
Y42030D01*
X91403D01*
Y33165D01*
X90214D01*
X68682Y54697D01*
Y94634D01*
X68554Y95278D01*
X68190Y95824D01*
X60069Y103944D01*
Y106236D01*
X60569Y106335D01*
X60881Y105584D01*
X61584Y104881D01*
X62500Y104501D01*
Y107000D01*
Y109499D01*
X61584Y109119D01*
X60881Y108416D01*
X60569Y107665D01*
X60069Y107764D01*
Y110435D01*
X59186D01*
Y112189D01*
X60832Y113835D01*
X61065Y113601D01*
X61672Y113350D01*
X62328D01*
X62935Y113601D01*
X63399Y114065D01*
X63650Y114672D01*
Y115328D01*
X63399Y115935D01*
X63165Y116168D01*
X72266Y125268D01*
X74482D01*
X74645Y125301D01*
X80404D01*
Y138699D01*
D02*
G37*
G36*
X61500Y123500D02*
X59501D01*
X59881Y122584D01*
X60584Y121881D01*
X61500Y121501D01*
Y123500D01*
D02*
G37*
G36*
X11460Y142491D02*
X10541D01*
X9653Y142253D01*
X8857Y141793D01*
X8207Y141143D01*
X7747Y140347D01*
X7509Y139460D01*
Y138540D01*
X7747Y137653D01*
X8207Y136857D01*
X8857Y136207D01*
X9653Y135747D01*
X10541Y135509D01*
X11460D01*
X12347Y135747D01*
X13143Y136207D01*
X13793Y136857D01*
X14059Y137318D01*
X22449D01*
X25891Y133875D01*
Y129746D01*
X28082D01*
Y122819D01*
X27598D01*
X26860Y122622D01*
X26199Y122240D01*
X25659Y121700D01*
X25277Y121039D01*
X25079Y120301D01*
Y119538D01*
X25277Y118800D01*
X25659Y118139D01*
X26199Y117599D01*
X26860Y117217D01*
X27598Y117019D01*
X28361D01*
X29099Y117217D01*
X29760Y117599D01*
X30300Y118139D01*
X30682Y118800D01*
X30879Y119538D01*
Y120301D01*
X30682Y121039D01*
X30300Y121700D01*
X29918Y122082D01*
Y129746D01*
X30825D01*
Y136254D01*
X28270D01*
X24335Y140190D01*
X23789Y140554D01*
X23146Y140682D01*
X22503D01*
X22399Y140935D01*
X21935Y141399D01*
X21328Y141650D01*
X20672D01*
X20065Y141399D01*
X19601Y140935D01*
X19497Y140682D01*
X14059D01*
X13793Y141143D01*
X13143Y141793D01*
X12347Y142253D01*
X11460Y142491D01*
D02*
G37*
G36*
X29000Y116000D02*
Y114001D01*
X30999D01*
X30619Y114917D01*
X29916Y115621D01*
X29000Y116000D01*
D02*
G37*
G36*
X28000D02*
X27084Y115621D01*
X26381Y114917D01*
X26001Y114001D01*
X28000D01*
Y116000D01*
D02*
G37*
G36*
X78500Y115499D02*
Y113500D01*
X80499D01*
X80119Y114416D01*
X79416Y115119D01*
X78500Y115499D01*
D02*
G37*
G36*
X77500D02*
X76584Y115119D01*
X75881Y114416D01*
X75501Y113500D01*
X77500D01*
Y115499D01*
D02*
G37*
G36*
X101500Y114499D02*
Y112500D01*
X103499D01*
X103119Y113416D01*
X102416Y114119D01*
X101500Y114499D01*
D02*
G37*
G36*
X100500D02*
X99584Y114119D01*
X98881Y113416D01*
X98501Y112500D01*
X100500D01*
Y114499D01*
D02*
G37*
G36*
X30999Y113001D02*
X29000D01*
Y111002D01*
X29916Y111382D01*
X30619Y112085D01*
X30999Y113001D01*
D02*
G37*
G36*
X28000D02*
X26001D01*
X26381Y112085D01*
X27084Y111382D01*
X28000Y111002D01*
Y113001D01*
D02*
G37*
G36*
X80499Y112500D02*
X78500D01*
Y110501D01*
X79416Y110881D01*
X80119Y111584D01*
X80499Y112500D01*
D02*
G37*
G36*
X77500D02*
X75501D01*
X75881Y111584D01*
X76584Y110881D01*
X77500Y110501D01*
Y112500D01*
D02*
G37*
G36*
X103499Y111500D02*
X101500D01*
Y109501D01*
X102416Y109881D01*
X103119Y110584D01*
X103499Y111500D01*
D02*
G37*
G36*
X100500D02*
X98501D01*
X98881Y110584D01*
X99584Y109881D01*
X100500Y109501D01*
Y111500D01*
D02*
G37*
G36*
X63500Y109499D02*
Y107500D01*
X65499D01*
X65119Y108416D01*
X64416Y109119D01*
X63500Y109499D01*
D02*
G37*
G36*
X65499Y106500D02*
X63500D01*
Y104501D01*
X64416Y104881D01*
X65119Y105584D01*
X65499Y106500D01*
D02*
G37*
G36*
X140500Y105499D02*
Y103500D01*
X142499D01*
X142119Y104416D01*
X141416Y105119D01*
X140500Y105499D01*
D02*
G37*
G36*
X139500D02*
X138584Y105119D01*
X137881Y104416D01*
X137501Y103500D01*
X139500D01*
Y105499D01*
D02*
G37*
G36*
X142499Y102500D02*
X140500D01*
Y100501D01*
X141416Y100881D01*
X142119Y101584D01*
X142499Y102500D01*
D02*
G37*
G36*
X139500D02*
X137501D01*
X137881Y101584D01*
X138584Y100881D01*
X139500Y100501D01*
Y102500D01*
D02*
G37*
G36*
X103621Y98030D02*
X91403D01*
Y87816D01*
X88134D01*
X88134Y87816D01*
X87490Y87688D01*
X86944Y87323D01*
X86944Y87323D01*
X75653Y76032D01*
X75288Y75486D01*
X75160Y74843D01*
Y71446D01*
X75026Y71368D01*
X74475Y70817D01*
X74085Y70142D01*
X73884Y69390D01*
Y68610D01*
X74085Y67858D01*
X74475Y67183D01*
X75026Y66632D01*
X75700Y66243D01*
X76453Y66041D01*
X77232D01*
X77985Y66243D01*
X78659Y66632D01*
X79210Y67183D01*
X79600Y67858D01*
X79802Y68610D01*
Y69390D01*
X79600Y70142D01*
X79210Y70817D01*
X78659Y71368D01*
X78525Y71446D01*
Y74146D01*
X86023Y81644D01*
X86065Y81601D01*
X86672Y81350D01*
X87328D01*
X87935Y81601D01*
X88399Y82065D01*
X88650Y82672D01*
Y83328D01*
X88399Y83935D01*
X88356Y83977D01*
X88830Y84451D01*
X91403D01*
Y75970D01*
X103621D01*
Y98030D01*
D02*
G37*
G36*
X27559Y88716D02*
X25500D01*
Y86657D01*
X27559D01*
Y88716D01*
D02*
G37*
G36*
X24500D02*
X22441D01*
Y86657D01*
X24500D01*
Y88716D01*
D02*
G37*
G36*
X27559Y85657D02*
X25500D01*
Y83598D01*
X27559D01*
Y85657D01*
D02*
G37*
G36*
X24500D02*
X22441D01*
Y83598D01*
X24500D01*
Y85657D01*
D02*
G37*
G36*
X73061Y110435D02*
X67931D01*
Y101565D01*
X73061D01*
Y104318D01*
X75623D01*
X75679Y104219D01*
X76219Y103679D01*
X76881Y103298D01*
X77618Y103100D01*
X78382D01*
X79119Y103298D01*
X79781Y103679D01*
X80321Y104219D01*
X80377Y104318D01*
X82497D01*
X82601Y104065D01*
X83065Y103601D01*
X83672Y103350D01*
X84328D01*
X84935Y103601D01*
X85399Y104065D01*
X85503Y104318D01*
X104303D01*
X113430Y95190D01*
X113430Y95190D01*
X113976Y94826D01*
X114620Y94698D01*
X130379D01*
Y75970D01*
X142597D01*
Y98030D01*
X132193D01*
X132030Y98062D01*
X115317D01*
X106190Y107190D01*
X105644Y107554D01*
X105000Y107682D01*
X80377D01*
X80321Y107781D01*
X79781Y108321D01*
X79119Y108702D01*
X78382Y108900D01*
X77618D01*
X76881Y108702D01*
X76219Y108321D01*
X75679Y107781D01*
X75623Y107682D01*
X73061D01*
Y110435D01*
D02*
G37*
G36*
X100500Y73499D02*
Y71500D01*
X102499D01*
X102119Y72416D01*
X101416Y73119D01*
X100500Y73499D01*
D02*
G37*
G36*
X99500D02*
X98584Y73119D01*
X97881Y72416D01*
X97501Y71500D01*
X99500D01*
Y73499D01*
D02*
G37*
G36*
X59716Y71559D02*
X57657D01*
Y69500D01*
X59716D01*
Y71559D01*
D02*
G37*
G36*
X56657D02*
X54598D01*
Y69500D01*
X56657D01*
Y71559D01*
D02*
G37*
G36*
X102499Y70500D02*
X100500D01*
Y68501D01*
X101416Y68881D01*
X102119Y69584D01*
X102499Y70500D01*
D02*
G37*
G36*
X99500D02*
X97501D01*
X97881Y69584D01*
X98584Y68881D01*
X99500Y68501D01*
Y70500D01*
D02*
G37*
G36*
X59716Y68500D02*
X57657D01*
Y66441D01*
X59716D01*
Y68500D01*
D02*
G37*
G36*
X56657D02*
X54598D01*
Y66441D01*
X56657D01*
Y68500D01*
D02*
G37*
G36*
X142197Y41630D02*
X136988D01*
Y31500D01*
X142197D01*
Y41630D01*
D02*
G37*
G36*
X125500Y33499D02*
Y31500D01*
X127499D01*
X127119Y32416D01*
X126416Y33119D01*
X125500Y33499D01*
D02*
G37*
G36*
X124500D02*
X123584Y33119D01*
X122881Y32416D01*
X122501Y31500D01*
X124500D01*
Y33499D01*
D02*
G37*
G36*
X135988Y41630D02*
X130780D01*
Y31500D01*
X135988D01*
Y41630D01*
D02*
G37*
G36*
X127499Y30500D02*
X125500D01*
Y28501D01*
X126416Y28881D01*
X127119Y29584D01*
X127499Y30500D01*
D02*
G37*
G36*
X124500D02*
X122501D01*
X122881Y29584D01*
X123584Y28881D01*
X124500Y28501D01*
Y30500D01*
D02*
G37*
G36*
X142197D02*
X136988D01*
Y20370D01*
X142197D01*
Y30500D01*
D02*
G37*
G36*
X135988D02*
X130780D01*
Y20370D01*
X135988D01*
Y30500D01*
D02*
G37*
G36*
X58067Y28571D02*
X55114D01*
X54382Y28425D01*
X53761Y28010D01*
X53347Y27390D01*
X53201Y26658D01*
Y21342D01*
X53347Y20610D01*
X53761Y19990D01*
X54382Y19575D01*
X55114Y19429D01*
X58067D01*
X58799Y19575D01*
X59420Y19990D01*
X59834Y20610D01*
X59980Y21342D01*
Y22318D01*
X65000D01*
X65162Y22350D01*
X65328D01*
X65481Y22413D01*
X65644Y22446D01*
X65782Y22538D01*
X65935Y22601D01*
X66052Y22718D01*
X66190Y22810D01*
X66282Y22948D01*
X66399Y23065D01*
X66462Y23218D01*
X66554Y23356D01*
X66587Y23519D01*
X66650Y23672D01*
Y23837D01*
X66682Y24000D01*
X66650Y24162D01*
Y24328D01*
X66587Y24481D01*
X66554Y24644D01*
X66462Y24782D01*
X66399Y24935D01*
X66282Y25052D01*
X66190Y25190D01*
X66052Y25282D01*
X65935Y25399D01*
X65782Y25462D01*
X65644Y25554D01*
X65481Y25587D01*
X65328Y25650D01*
X65162D01*
X65000Y25682D01*
X59980D01*
Y26658D01*
X59834Y27390D01*
X59420Y28010D01*
X58799Y28425D01*
X58067Y28571D01*
D02*
G37*
G36*
X34445D02*
X31492D01*
X30760Y28425D01*
X30139Y28010D01*
X29725Y27390D01*
X29579Y26658D01*
Y21342D01*
X29725Y20610D01*
X30139Y19990D01*
X30760Y19575D01*
X31492Y19429D01*
X34445D01*
X35177Y19575D01*
X35798Y19990D01*
X36213Y20610D01*
X36358Y21342D01*
Y26658D01*
X36213Y27390D01*
X35798Y28010D01*
X35177Y28425D01*
X34445Y28571D01*
D02*
G37*
G36*
X47437Y8885D02*
X42122D01*
X41390Y8740D01*
X40769Y8325D01*
X40355Y7705D01*
X40209Y6972D01*
Y4020D01*
X40355Y3288D01*
X40769Y2667D01*
X41390Y2252D01*
X42122Y2107D01*
X47437D01*
X48169Y2252D01*
X48790Y2667D01*
X49205Y3288D01*
X49211Y3318D01*
X65000D01*
X65162Y3350D01*
X65328D01*
X65481Y3413D01*
X65644Y3446D01*
X65782Y3538D01*
X65935Y3601D01*
X66052Y3718D01*
X66190Y3810D01*
X66282Y3948D01*
X66399Y4065D01*
X66462Y4218D01*
X66554Y4356D01*
X66587Y4519D01*
X66650Y4672D01*
Y4837D01*
X66682Y5000D01*
X66650Y5162D01*
Y5328D01*
X66587Y5481D01*
X66554Y5644D01*
X66462Y5782D01*
X66399Y5935D01*
X66282Y6052D01*
X66190Y6190D01*
X66052Y6282D01*
X65935Y6399D01*
X65782Y6462D01*
X65644Y6554D01*
X65481Y6587D01*
X65328Y6650D01*
X65162D01*
X65000Y6682D01*
X49350D01*
Y6972D01*
X49205Y7705D01*
X48790Y8325D01*
X48169Y8740D01*
X47437Y8885D01*
D02*
G37*
%LPD*%
D17*
X51382Y132000D02*
D03*
X76618D02*
D03*
D18*
X57504Y106000D02*
D03*
X70496D02*
D03*
D20*
X141000Y130000D02*
D03*
X11000Y129000D02*
D03*
D21*
X141000Y140000D02*
D03*
X11000Y139000D02*
D03*
D22*
X25000Y105843D02*
D03*
X76843Y69000D02*
D03*
D23*
X25000Y86157D02*
D03*
D26*
X57157Y69000D02*
D03*
D28*
X136488Y31000D02*
D03*
X97512D02*
D03*
X136488Y87000D02*
D03*
X97512D02*
D03*
D29*
X35642Y133000D02*
D03*
X28358D02*
D03*
D30*
X88000Y135000D02*
D03*
X84000Y105000D02*
D03*
X62000Y115000D02*
D03*
X42000Y134000D02*
D03*
X21000Y140000D02*
D03*
X65000Y24000D02*
D03*
Y5000D02*
D03*
X87000Y83000D02*
D03*
D31*
X44780Y5496D02*
X45276Y5000D01*
X65000D01*
X56591Y24000D02*
X65000D01*
X35642Y133000D02*
X50382D01*
X78000Y106000D02*
X105000D01*
X70496D02*
X78000D01*
X96645Y86134D02*
X97512Y87000D01*
X76843Y74843D02*
X88134Y86134D01*
X96645D01*
X76843Y69000D02*
Y74843D01*
X89518Y31482D02*
X97029D01*
X67000Y54000D02*
Y94634D01*
X97029Y31482D02*
X97512Y31000D01*
X67000Y54000D02*
X89518Y31482D01*
X57504Y104130D02*
X67000Y94634D01*
X105000Y106000D02*
X114620Y96380D01*
X132030D01*
X136488Y91921D01*
Y87000D02*
Y91921D01*
X36459Y130541D02*
X40000Y127000D01*
Y113000D02*
Y127000D01*
X32843Y105843D02*
X40000Y113000D01*
X25000Y105843D02*
X32843D01*
X57504Y106000D02*
Y112886D01*
X71569Y126951D01*
X74482D01*
X76618Y129087D01*
Y132000D01*
X50382Y133000D02*
X51382Y132000D01*
X36459Y130541D02*
Y131396D01*
X35642Y132213D02*
X36459Y131396D01*
X23146Y139000D02*
X28358Y133787D01*
X11000Y139000D02*
X23146D01*
D32*
X28358Y133000D02*
X29000Y132358D01*
Y122022D02*
Y132358D01*
X27979Y121002D02*
X29000Y122022D01*
X27979Y119919D02*
Y121002D01*
X34000Y117000D02*
Y118082D01*
X35000Y119082D02*
Y129900D01*
X35642Y130541D01*
X34000Y118082D02*
X35000Y119082D01*
X28358Y133000D02*
Y133787D01*
X57504Y104130D02*
Y106000D01*
X35642Y132213D02*
Y133000D01*
D33*
X44780Y5496D02*
D03*
D34*
X32969Y24000D02*
D03*
X56591D02*
D03*
D35*
X32000Y140000D02*
D03*
X140000Y103000D02*
D03*
X88000Y140000D02*
D03*
X101000Y112000D02*
D03*
X78000Y106000D02*
D03*
X27979Y119919D02*
D03*
X34000Y117000D02*
D03*
X28500Y113501D02*
D03*
X100000Y71000D02*
D03*
X62000Y124000D02*
D03*
X63000Y107000D02*
D03*
X78000Y113000D02*
D03*
X125000Y31000D02*
D03*
M02*
