G04*
G04 #@! TF.GenerationSoftware,Altium Limited,Altium Designer,22.3.1 (43)*
G04*
G04 Layer_Physical_Order=4*
G04 Layer_Color=16711680*
%FSLAX25Y25*%
%MOIN*%
G70*
G04*
G04 #@! TF.SameCoordinates,6ADC0360-3E08-4B8B-B3B3-E68A1261090F*
G04*
G04*
G04 #@! TF.FilePolarity,Positive*
G04*
G01*
G75*
%ADD18R,0.04331X0.08071*%
%ADD19C,0.02500*%
%ADD23R,0.06181X0.06181*%
%ADD24C,0.06181*%
%ADD25C,0.05118*%
%ADD26R,0.05118X0.05118*%
%ADD29R,0.05118X0.05118*%
%ADD31C,0.02500*%
%ADD32C,0.01000*%
G04:AMPARAMS|DCode=33|XSize=82.68mil|YSize=59.06mil|CornerRadius=14.76mil|HoleSize=0mil|Usage=FLASHONLY|Rotation=180.000|XOffset=0mil|YOffset=0mil|HoleType=Round|Shape=RoundedRectangle|*
%AMROUNDEDRECTD33*
21,1,0.08268,0.02953,0,0,180.0*
21,1,0.05315,0.05906,0,0,180.0*
1,1,0.02953,-0.02657,0.01476*
1,1,0.02953,0.02657,0.01476*
1,1,0.02953,0.02657,-0.01476*
1,1,0.02953,-0.02657,-0.01476*
%
%ADD33ROUNDEDRECTD33*%
G04:AMPARAMS|DCode=34|XSize=82.68mil|YSize=59.06mil|CornerRadius=14.76mil|HoleSize=0mil|Usage=FLASHONLY|Rotation=90.000|XOffset=0mil|YOffset=0mil|HoleType=Round|Shape=RoundedRectangle|*
%AMROUNDEDRECTD34*
21,1,0.08268,0.02953,0,0,90.0*
21,1,0.05315,0.05906,0,0,90.0*
1,1,0.02953,0.01476,0.02657*
1,1,0.02953,0.01476,-0.02657*
1,1,0.02953,-0.01476,-0.02657*
1,1,0.02953,-0.01476,0.02657*
%
%ADD34ROUNDEDRECTD34*%
%ADD35C,0.05000*%
G04:AMPARAMS|DCode=36|XSize=175.2mil|YSize=59.84mil|CornerRadius=29.92mil|HoleSize=0mil|Usage=FLASHONLY|Rotation=0.000|XOffset=0mil|YOffset=0mil|HoleType=Round|Shape=RoundedRectangle|*
%AMROUNDEDRECTD36*
21,1,0.17520,0.00000,0,0,0.0*
21,1,0.11536,0.05984,0,0,0.0*
1,1,0.05984,0.05768,0.00000*
1,1,0.05984,-0.05768,0.00000*
1,1,0.05984,-0.05768,0.00000*
1,1,0.05984,0.05768,0.00000*
%
%ADD36ROUNDEDRECTD36*%
%ADD37R,0.08071X0.04331*%
%ADD38R,0.09764X0.06496*%
%ADD39R,0.00955X0.03862*%
G04:AMPARAMS|DCode=40|XSize=38.62mil|YSize=9.55mil|CornerRadius=4.77mil|HoleSize=0mil|Usage=FLASHONLY|Rotation=90.000|XOffset=0mil|YOffset=0mil|HoleType=Round|Shape=RoundedRectangle|*
%AMROUNDEDRECTD40*
21,1,0.03862,0.00000,0,0,90.0*
21,1,0.02908,0.00955,0,0,90.0*
1,1,0.00955,0.00000,0.01454*
1,1,0.00955,0.00000,-0.01454*
1,1,0.00955,0.00000,-0.01454*
1,1,0.00955,0.00000,0.01454*
%
%ADD40ROUNDEDRECTD40*%
G04:AMPARAMS|DCode=41|XSize=47.45mil|YSize=20.86mil|CornerRadius=10.43mil|HoleSize=0mil|Usage=FLASHONLY|Rotation=90.000|XOffset=0mil|YOffset=0mil|HoleType=Round|Shape=RoundedRectangle|*
%AMROUNDEDRECTD41*
21,1,0.04745,0.00000,0,0,90.0*
21,1,0.02659,0.02086,0,0,90.0*
1,1,0.02086,0.00000,0.01330*
1,1,0.02086,0.00000,-0.01330*
1,1,0.02086,0.00000,-0.01330*
1,1,0.02086,0.00000,0.01330*
%
%ADD41ROUNDEDRECTD41*%
%ADD42R,0.02086X0.04745*%
%ADD43R,0.05938X0.04750*%
%ADD44R,0.04940X0.05733*%
%ADD45R,0.05733X0.04940*%
%ADD46R,0.04750X0.05938*%
%ADD47C,0.01200*%
%ADD48C,0.01600*%
G36*
X0Y0D02*
X-150000D01*
Y150000D01*
X0D01*
Y0D01*
D02*
G37*
%LPC*%
G36*
X-8540Y143491D02*
X-9460D01*
X-10347Y143253D01*
X-11143Y142793D01*
X-11793Y142143D01*
X-12253Y141347D01*
X-12314Y141118D01*
X-16100D01*
X-16416Y141055D01*
X-18721D01*
X-19065Y141399D01*
X-19672Y141650D01*
X-20328D01*
X-20935Y141399D01*
X-21131Y141202D01*
X-21631Y141410D01*
Y142912D01*
X-28369D01*
Y137362D01*
X-21631D01*
Y138591D01*
X-21131Y138798D01*
X-20935Y138601D01*
X-20328Y138350D01*
X-19672D01*
X-19065Y138601D01*
X-18601Y139065D01*
X-18537Y139220D01*
X-16163D01*
X-15847Y139282D01*
X-12421D01*
X-12253Y138653D01*
X-11793Y137857D01*
X-11143Y137207D01*
X-10347Y136747D01*
X-9460Y136509D01*
X-8540D01*
X-7653Y136747D01*
X-6857Y137207D01*
X-6207Y137857D01*
X-5747Y138653D01*
X-5509Y139541D01*
Y140460D01*
X-5747Y141347D01*
X-6207Y142143D01*
X-6857Y142793D01*
X-7653Y143253D01*
X-8540Y143491D01*
D02*
G37*
G36*
X-67031Y142512D02*
X-69500D01*
Y140637D01*
X-67031D01*
Y142512D01*
D02*
G37*
G36*
X-70500D02*
X-72969D01*
Y140637D01*
X-70500D01*
Y142512D01*
D02*
G37*
G36*
X-61500Y142499D02*
Y140500D01*
X-59501D01*
X-59881Y141416D01*
X-60584Y142119D01*
X-61500Y142499D01*
D02*
G37*
G36*
X-62500D02*
X-63416Y142119D01*
X-64119Y141416D01*
X-64499Y140500D01*
X-62500D01*
Y142499D01*
D02*
G37*
G36*
X-117500D02*
Y140500D01*
X-115501D01*
X-115881Y141416D01*
X-116584Y142119D01*
X-117500Y142499D01*
D02*
G37*
G36*
X-118500D02*
X-119416Y142119D01*
X-120119Y141416D01*
X-120499Y140500D01*
X-118500D01*
Y142499D01*
D02*
G37*
G36*
X-52134Y141721D02*
X-54500D01*
Y139751D01*
X-52134D01*
Y141721D01*
D02*
G37*
G36*
X-55500D02*
X-57867D01*
Y139751D01*
X-55500D01*
Y141721D01*
D02*
G37*
G36*
X-67031Y139637D02*
X-69500D01*
Y137762D01*
X-67031D01*
Y139637D01*
D02*
G37*
G36*
X-70500D02*
X-72969D01*
Y137762D01*
X-70500D01*
Y139637D01*
D02*
G37*
G36*
X-59501Y139500D02*
X-61500D01*
Y137501D01*
X-60584Y137881D01*
X-59881Y138584D01*
X-59501Y139500D01*
D02*
G37*
G36*
X-62500D02*
X-64499D01*
X-64119Y138584D01*
X-63416Y137881D01*
X-62500Y137501D01*
Y139500D01*
D02*
G37*
G36*
X-115501D02*
X-117500D01*
Y137501D01*
X-116584Y137881D01*
X-115881Y138584D01*
X-115501Y139500D01*
D02*
G37*
G36*
X-118500D02*
X-120499D01*
X-120119Y138584D01*
X-119416Y137881D01*
X-118500Y137501D01*
Y139500D01*
D02*
G37*
G36*
X-52134Y138751D02*
X-54500D01*
Y136781D01*
X-52134D01*
Y138751D01*
D02*
G37*
G36*
X-55500D02*
X-57867D01*
Y136781D01*
X-55500D01*
Y138751D01*
D02*
G37*
G36*
X-138540Y142491D02*
X-139460D01*
X-140347Y142253D01*
X-141143Y141793D01*
X-141793Y141143D01*
X-142253Y140347D01*
X-142491Y139460D01*
Y138540D01*
X-142253Y137653D01*
X-141793Y136857D01*
X-141143Y136207D01*
X-140347Y135747D01*
X-139460Y135509D01*
X-138540D01*
X-137653Y135747D01*
X-136857Y136207D01*
X-136207Y136857D01*
X-135747Y137653D01*
X-135509Y138540D01*
Y139460D01*
X-135747Y140347D01*
X-136207Y141143D01*
X-136857Y141793D01*
X-137653Y142253D01*
X-138540Y142491D01*
D02*
G37*
G36*
X-21631Y134638D02*
X-28369D01*
Y132780D01*
X-36631D01*
Y134638D01*
X-43369D01*
Y129088D01*
X-36631D01*
Y130945D01*
X-32519D01*
Y130617D01*
X-32267Y130010D01*
X-31803Y129546D01*
X-31598Y129461D01*
X-31667Y129114D01*
Y113267D01*
X-33619D01*
Y106734D01*
X-32371D01*
X-32164Y106234D01*
X-32680Y105718D01*
X-55632D01*
X-56118Y105752D01*
X-56118Y106218D01*
Y108500D01*
X-61000D01*
X-65882D01*
Y106094D01*
X-65882Y105752D01*
X-66316Y105594D01*
X-68538D01*
X-69100Y106156D01*
Y106382D01*
X-69298Y107119D01*
X-69679Y107781D01*
X-70219Y108321D01*
X-70881Y108702D01*
X-71618Y108900D01*
X-72382D01*
X-73119Y108702D01*
X-73781Y108321D01*
X-74321Y107781D01*
X-74702Y107119D01*
X-74900Y106382D01*
Y105618D01*
X-74702Y104881D01*
X-74321Y104219D01*
X-73781Y103679D01*
X-73119Y103298D01*
X-72382Y103100D01*
X-71618D01*
X-70975Y103272D01*
X-70424Y102722D01*
X-70174Y102554D01*
X-69879Y102357D01*
X-69879Y102357D01*
X-69879Y102357D01*
X-69235Y102229D01*
X-69235Y102229D01*
X-69235Y102229D01*
X-64847D01*
Y101776D01*
X-64779Y101434D01*
X-64585Y101144D01*
X-64295Y100950D01*
X-63953Y100882D01*
X-63723Y100927D01*
X-63359Y100728D01*
X-63261Y100640D01*
X-63251Y100128D01*
X-76124Y87255D01*
X-76586Y87446D01*
Y124367D01*
X-76656Y124718D01*
X-76855Y125016D01*
X-81613Y129774D01*
Y129988D01*
X-81631Y130077D01*
Y134638D01*
X-88369D01*
Y132780D01*
X-94900D01*
X-95251Y132711D01*
X-95549Y132512D01*
X-97143Y130918D01*
X-98879D01*
Y133266D01*
X-104619D01*
Y126734D01*
X-102666D01*
Y125749D01*
X-102597Y125398D01*
X-102398Y125100D01*
X-102177Y124880D01*
Y122588D01*
X-102300Y122506D01*
X-102619Y122028D01*
X-102731Y121465D01*
Y118806D01*
X-102619Y118243D01*
X-102300Y117766D01*
X-101823Y117447D01*
X-101260Y117335D01*
X-100697Y117447D01*
X-100220Y117766D01*
X-99901Y118243D01*
X-99789Y118806D01*
Y121465D01*
X-99901Y122028D01*
X-100220Y122506D01*
X-100342Y122588D01*
Y125260D01*
X-100412Y125611D01*
X-100611Y125909D01*
X-100831Y126129D01*
Y126734D01*
X-98879D01*
Y129082D01*
X-96763D01*
X-96412Y129152D01*
X-96114Y129351D01*
X-94520Y130945D01*
X-88369D01*
Y129088D01*
X-83388D01*
X-83379Y129043D01*
X-83180Y128745D01*
X-78422Y123987D01*
Y82435D01*
X-80069D01*
Y73565D01*
X-78355D01*
X-78352Y73549D01*
X-78153Y73251D01*
X-77855Y73052D01*
X-77504Y72982D01*
X-77071D01*
X-76890Y72710D01*
X-75261Y71082D01*
X-75525Y70817D01*
X-75915Y70142D01*
X-76116Y69390D01*
Y68610D01*
X-75915Y67858D01*
X-75525Y67183D01*
X-74974Y66632D01*
X-74300Y66243D01*
X-73547Y66041D01*
X-72768D01*
X-72015Y66243D01*
X-71341Y66632D01*
X-71076Y66897D01*
X-68190Y64010D01*
X-67644Y63646D01*
X-67000Y63518D01*
X-67000Y63518D01*
X-46400D01*
X-45756Y63646D01*
X-45210Y64010D01*
X-34403Y74818D01*
X-25499D01*
X-25487Y74789D01*
X-24943Y74081D01*
X-24234Y73537D01*
X-23409Y73195D01*
X-22524Y73079D01*
X-10988D01*
X-10103Y73195D01*
X-9278Y73537D01*
X-8569Y74081D01*
X-8025Y74789D01*
X-7683Y75615D01*
X-7567Y76500D01*
X-7683Y77385D01*
X-8025Y78211D01*
X-8569Y78919D01*
X-9278Y79463D01*
X-10103Y79805D01*
X-10988Y79921D01*
X-22524D01*
X-23409Y79805D01*
X-24234Y79463D01*
X-24943Y78919D01*
X-25487Y78211D01*
X-25499Y78182D01*
X-35100D01*
X-35744Y78054D01*
X-36290Y77690D01*
X-36290Y77690D01*
X-47097Y66882D01*
X-66303D01*
X-74510Y75090D01*
X-74939Y75376D01*
Y78753D01*
X-74906Y78915D01*
Y83714D01*
X-60810Y97810D01*
X-60446Y98356D01*
X-60318Y99000D01*
X-60446Y99644D01*
X-60564Y99820D01*
X-60510Y100007D01*
X-59948Y100152D01*
X-54147Y94351D01*
X-53849Y94152D01*
X-53498Y94082D01*
X-40912D01*
Y91631D01*
X-35362D01*
Y98369D01*
X-36626D01*
X-36833Y98869D01*
X-35620Y100082D01*
X-19251D01*
X-18900Y100152D01*
X-18602Y100351D01*
X-15602Y103351D01*
X-15403Y103649D01*
X-15334Y104000D01*
Y106734D01*
X-13382D01*
Y113267D01*
X-19121D01*
Y106734D01*
X-17169D01*
Y106030D01*
X-17497D01*
X-18103Y105779D01*
X-18568Y105315D01*
X-18819Y104708D01*
Y104052D01*
X-18568Y103445D01*
X-18336Y103213D01*
X-19631Y101918D01*
X-36000D01*
X-36351Y101848D01*
X-36649Y101649D01*
X-38786Y99512D01*
X-38985Y99214D01*
X-39055Y98863D01*
Y98369D01*
X-40912D01*
Y95918D01*
X-53118D01*
X-57638Y100437D01*
X-57446Y100899D01*
X-57170D01*
Y103027D01*
X-57130Y103230D01*
Y103882D01*
X-32300D01*
X-31949Y103952D01*
X-31651Y104151D01*
X-30100Y105702D01*
X-29901Y106000D01*
X-29831Y106351D01*
Y106734D01*
X-27879D01*
Y113267D01*
X-29831D01*
Y128734D01*
X-28831Y129734D01*
X-28369Y129543D01*
Y129088D01*
X-21631D01*
Y134638D01*
D02*
G37*
G36*
X-5909Y133091D02*
X-8500D01*
Y130500D01*
X-5909D01*
Y133091D01*
D02*
G37*
G36*
X-105781Y132867D02*
X-107751D01*
Y130500D01*
X-105781D01*
Y132867D01*
D02*
G37*
G36*
X-108751D02*
X-110721D01*
Y130500D01*
X-108751D01*
Y132867D01*
D02*
G37*
G36*
X-9500Y133091D02*
X-12091D01*
Y130500D01*
X-9500D01*
Y133091D01*
D02*
G37*
G36*
X-135909Y132091D02*
X-138500D01*
Y129500D01*
X-135909D01*
Y132091D01*
D02*
G37*
G36*
X-139500D02*
X-142091D01*
Y129500D01*
X-139500D01*
Y132091D01*
D02*
G37*
G36*
X-105781Y129500D02*
X-107751D01*
Y127134D01*
X-105781D01*
Y129500D01*
D02*
G37*
G36*
X-108751D02*
X-110721D01*
Y127134D01*
X-108751D01*
Y129500D01*
D02*
G37*
G36*
X-5909D02*
X-8500D01*
Y126909D01*
X-5909D01*
Y129500D01*
D02*
G37*
G36*
X-9500D02*
X-12091D01*
Y126909D01*
X-9500D01*
Y129500D01*
D02*
G37*
G36*
X-135909Y128500D02*
X-138500D01*
Y125909D01*
X-135909D01*
Y128500D01*
D02*
G37*
G36*
X-139500D02*
X-142091D01*
Y125909D01*
X-139500D01*
Y128500D01*
D02*
G37*
G36*
X-87500Y126499D02*
Y124500D01*
X-85501D01*
X-85881Y125416D01*
X-86584Y126119D01*
X-87500Y126499D01*
D02*
G37*
G36*
X-88500D02*
X-89416Y126119D01*
X-90119Y125416D01*
X-90499Y124500D01*
X-88500D01*
Y126499D01*
D02*
G37*
G36*
X-85501Y123500D02*
X-87500D01*
Y121501D01*
X-86584Y121881D01*
X-85881Y122584D01*
X-85501Y123500D01*
D02*
G37*
G36*
X-88500D02*
X-90499D01*
X-90119Y122584D01*
X-89416Y121881D01*
X-88500Y121501D01*
Y123500D01*
D02*
G37*
G36*
X-104500Y122386D02*
Y120636D01*
X-103937D01*
Y121465D01*
X-104018Y121872D01*
X-104248Y122217D01*
X-104500Y122386D01*
D02*
G37*
G36*
X-105500D02*
X-105752Y122217D01*
X-105982Y121872D01*
X-106063Y121465D01*
Y120636D01*
X-105500D01*
Y122386D01*
D02*
G37*
G36*
X-103937Y119636D02*
X-104500D01*
Y117886D01*
X-104248Y118054D01*
X-104018Y118399D01*
X-103937Y118806D01*
Y119636D01*
D02*
G37*
G36*
X-105500D02*
X-106063D01*
Y118806D01*
X-105982Y118399D01*
X-105752Y118054D01*
X-105500Y117886D01*
Y119636D01*
D02*
G37*
G36*
X-57547Y116264D02*
Y115270D01*
X-57531D01*
Y116224D01*
X-57547Y116264D01*
D02*
G37*
G36*
X-58547D02*
X-58564Y116224D01*
Y115270D01*
X-58547D01*
Y116264D01*
D02*
G37*
G36*
X-121000Y116000D02*
Y114001D01*
X-119001D01*
X-119381Y114917D01*
X-120084Y115621D01*
X-121000Y116000D01*
D02*
G37*
G36*
X-122000D02*
X-122916Y115621D01*
X-123619Y114917D01*
X-123999Y114001D01*
X-122000D01*
Y116000D01*
D02*
G37*
G36*
X-71500Y115499D02*
Y113500D01*
X-69501D01*
X-69881Y114416D01*
X-70584Y115119D01*
X-71500Y115499D01*
D02*
G37*
G36*
X-72500D02*
X-73416Y115119D01*
X-74119Y114416D01*
X-74499Y113500D01*
X-72500D01*
Y115499D01*
D02*
G37*
G36*
X-57531Y114270D02*
X-57547D01*
Y113276D01*
X-57531Y113316D01*
Y114270D01*
D02*
G37*
G36*
X-58547D02*
X-58564D01*
Y113316D01*
X-58547Y113276D01*
Y114270D01*
D02*
G37*
G36*
X-48500Y114499D02*
Y112500D01*
X-46501D01*
X-46881Y113416D01*
X-47584Y114119D01*
X-48500Y114499D01*
D02*
G37*
G36*
X-49500D02*
X-50416Y114119D01*
X-51119Y113416D01*
X-51499Y112500D01*
X-49500D01*
Y114499D01*
D02*
G37*
G36*
X-104500Y114114D02*
Y112364D01*
X-103937D01*
Y113194D01*
X-104018Y113601D01*
X-104248Y113946D01*
X-104500Y114114D01*
D02*
G37*
G36*
X-105500D02*
X-105752Y113946D01*
X-105982Y113601D01*
X-106063Y113194D01*
Y112364D01*
X-105500D01*
Y114114D01*
D02*
G37*
G36*
X-119001Y113001D02*
X-121000D01*
Y111002D01*
X-120084Y111382D01*
X-119381Y112085D01*
X-119001Y113001D01*
D02*
G37*
G36*
X-122000D02*
X-123999D01*
X-123619Y112085D01*
X-122916Y111382D01*
X-122000Y111002D01*
Y113001D01*
D02*
G37*
G36*
X-69501Y112500D02*
X-71500D01*
Y110501D01*
X-70584Y110881D01*
X-69881Y111584D01*
X-69501Y112500D01*
D02*
G37*
G36*
X-72500D02*
X-74499D01*
X-74119Y111584D01*
X-73416Y110881D01*
X-72500Y110501D01*
Y112500D01*
D02*
G37*
G36*
X-7279Y112866D02*
X-9249D01*
Y110500D01*
X-7279D01*
Y112866D01*
D02*
G37*
G36*
X-10249D02*
X-12219D01*
Y110500D01*
X-10249D01*
Y112866D01*
D02*
G37*
G36*
X-46501Y111500D02*
X-48500D01*
Y109501D01*
X-47584Y109881D01*
X-46881Y110584D01*
X-46501Y111500D01*
D02*
G37*
G36*
X-49500D02*
X-51499D01*
X-51119Y110584D01*
X-50416Y109881D01*
X-49500Y109501D01*
Y111500D01*
D02*
G37*
G36*
X-81631Y142912D02*
X-88369D01*
Y137362D01*
X-81631D01*
Y139220D01*
X-79517D01*
X-78424Y138126D01*
X-78399Y138065D01*
X-77935Y137601D01*
X-77918Y137594D01*
Y131100D01*
X-77848Y130749D01*
X-77649Y130451D01*
X-64870Y117673D01*
Y114770D01*
X-64847Y114654D01*
Y113316D01*
X-64779Y112974D01*
X-64628Y112748D01*
X-64702Y112479D01*
X-64834Y112248D01*
X-65882D01*
Y109500D01*
X-61000D01*
X-56118D01*
Y112248D01*
X-59135D01*
X-59267Y112479D01*
X-59340Y112748D01*
X-59189Y112974D01*
X-59121Y113316D01*
Y114654D01*
X-59098Y114770D01*
Y125703D01*
X-58770D01*
X-58163Y125954D01*
X-57699Y126418D01*
X-57448Y127025D01*
Y127681D01*
X-57699Y128288D01*
X-57931Y128520D01*
X-56718Y129733D01*
X-56620Y129879D01*
X-51733D01*
Y135619D01*
X-58267D01*
Y130868D01*
X-58284Y130779D01*
Y130762D01*
X-60665Y128382D01*
X-60684Y128353D01*
X-60719Y128341D01*
X-61263Y128387D01*
X-61335Y128496D01*
X-65351Y132512D01*
X-65649Y132711D01*
X-66000Y132780D01*
X-66631D01*
Y134638D01*
X-73369D01*
Y129474D01*
X-73869Y129267D01*
X-76082Y131480D01*
Y137594D01*
X-76065Y137601D01*
X-75601Y138065D01*
X-75350Y138672D01*
Y139328D01*
X-75601Y139935D01*
X-76065Y140399D01*
X-76672Y140650D01*
X-77328D01*
X-77935Y140399D01*
X-78018Y140316D01*
X-78488Y140786D01*
X-78786Y140985D01*
X-79137Y141055D01*
X-81631D01*
Y142912D01*
D02*
G37*
G36*
X-86500Y109499D02*
Y107500D01*
X-84501D01*
X-84881Y108416D01*
X-85584Y109119D01*
X-86500Y109499D01*
D02*
G37*
G36*
X-87500D02*
X-88416Y109119D01*
X-89119Y108416D01*
X-89499Y107500D01*
X-87500D01*
Y109499D01*
D02*
G37*
G36*
X-7279Y109500D02*
X-9249D01*
Y107133D01*
X-7279D01*
Y109500D01*
D02*
G37*
G36*
X-10249D02*
X-12219D01*
Y107133D01*
X-10249D01*
Y109500D01*
D02*
G37*
G36*
X-48163Y148918D02*
X-119000D01*
X-119351Y148848D01*
X-119649Y148649D01*
X-126149Y142149D01*
X-126348Y141851D01*
X-126418Y141500D01*
Y111600D01*
X-126348Y111249D01*
X-126149Y110951D01*
X-124482Y109284D01*
X-124548Y109035D01*
X-124706Y108802D01*
X-125390D01*
X-126142Y108600D01*
X-126817Y108210D01*
X-127368Y107659D01*
X-127757Y106985D01*
X-127959Y106232D01*
Y105453D01*
X-127757Y104701D01*
X-127368Y104026D01*
X-126817Y103475D01*
X-126142Y103085D01*
X-125390Y102884D01*
X-124610D01*
X-124460Y102924D01*
X-122843Y101306D01*
X-122843Y101306D01*
X-122297Y100942D01*
X-121653Y100814D01*
X-121653Y100814D01*
X-118435D01*
Y99931D01*
X-109565D01*
Y105061D01*
X-118435D01*
Y104178D01*
X-120957D01*
X-122081Y105303D01*
X-122041Y105453D01*
Y106232D01*
X-122243Y106985D01*
X-122299Y107082D01*
X-122010Y107582D01*
X-101760D01*
X-101409Y107652D01*
X-101111Y107851D01*
X-100611Y108351D01*
X-100412Y108649D01*
X-100342Y109000D01*
Y109092D01*
X-99817D01*
Y114637D01*
X-102703D01*
Y109418D01*
X-103937D01*
X-103985Y109475D01*
X-104158Y109918D01*
X-104018Y110128D01*
X-103937Y110535D01*
Y111364D01*
X-105000D01*
X-106063D01*
Y110535D01*
X-105982Y110128D01*
X-105842Y109918D01*
X-106015Y109475D01*
X-106063Y109418D01*
X-107150D01*
X-107417Y109918D01*
X-107381Y109972D01*
X-107269Y110535D01*
Y113194D01*
X-107381Y113757D01*
X-107700Y114234D01*
X-108177Y114553D01*
X-108740Y114665D01*
X-109303Y114553D01*
X-109707Y114283D01*
X-111986D01*
X-113402Y115700D01*
X-113298Y115881D01*
X-113100Y116618D01*
Y117382D01*
X-113298Y118119D01*
X-113679Y118781D01*
X-114219Y119321D01*
X-114881Y119702D01*
X-115618Y119900D01*
X-116382D01*
X-117119Y119702D01*
X-117781Y119321D01*
X-118321Y118781D01*
X-118702Y118119D01*
X-118900Y117382D01*
Y116618D01*
X-118702Y115881D01*
X-118321Y115219D01*
X-117781Y114679D01*
X-117119Y114298D01*
X-116382Y114100D01*
X-115618D01*
X-114881Y114298D01*
X-114700Y114402D01*
X-113014Y112717D01*
X-112717Y112518D01*
X-112366Y112448D01*
X-110211D01*
Y110535D01*
X-110099Y109972D01*
X-110063Y109918D01*
X-110331Y109418D01*
X-122020D01*
X-124582Y111980D01*
Y117673D01*
X-124082Y117880D01*
X-123801Y117599D01*
X-123140Y117217D01*
X-122402Y117019D01*
X-121639D01*
X-120901Y117217D01*
X-120240Y117599D01*
X-119700Y118139D01*
X-119318Y118800D01*
X-119121Y119538D01*
Y120301D01*
X-119196Y120582D01*
X-118812Y121082D01*
X-115164D01*
X-113569Y119487D01*
X-113271Y119288D01*
X-112920Y119218D01*
X-110211D01*
Y118806D01*
X-110099Y118243D01*
X-109781Y117766D01*
X-109303Y117447D01*
X-108740Y117335D01*
X-108177Y117447D01*
X-107700Y117766D01*
X-107381Y118243D01*
X-107269Y118806D01*
Y121465D01*
X-107381Y122028D01*
X-107700Y122506D01*
X-108177Y122825D01*
X-108740Y122937D01*
X-109303Y122825D01*
X-109781Y122506D01*
X-110099Y122028D01*
X-110211Y121465D01*
Y121053D01*
X-112540D01*
X-114136Y122649D01*
X-114433Y122848D01*
X-114784Y122918D01*
X-120000D01*
X-120351Y122848D01*
X-120649Y122649D01*
X-120758Y122539D01*
X-120901Y122622D01*
X-121639Y122819D01*
X-122402D01*
X-123140Y122622D01*
X-123801Y122240D01*
X-124082Y121959D01*
X-124582Y122166D01*
Y141120D01*
X-118620Y147082D01*
X-48543D01*
X-43369Y141908D01*
Y138666D01*
X-46649Y135386D01*
X-46848Y135088D01*
X-46918Y134737D01*
Y129379D01*
Y128000D01*
Y120286D01*
X-46848Y119935D01*
X-46649Y119637D01*
X-46063Y119051D01*
X-45765Y118852D01*
X-45414Y118782D01*
X-40380D01*
X-38169Y116571D01*
Y113267D01*
X-40121D01*
Y106734D01*
X-34381D01*
Y113267D01*
X-36334D01*
Y116951D01*
X-36403Y117302D01*
X-36602Y117600D01*
X-39351Y120349D01*
X-39649Y120548D01*
X-40000Y120618D01*
X-45034D01*
X-45082Y120666D01*
Y128000D01*
Y134357D01*
X-42077Y137362D01*
X-36631D01*
Y142912D01*
X-41791D01*
X-41820Y142955D01*
X-42766Y143901D01*
X-42601Y144065D01*
X-42350Y144672D01*
Y145328D01*
X-42601Y145935D01*
X-43065Y146399D01*
X-43672Y146650D01*
X-44328D01*
X-44935Y146399D01*
X-45099Y146234D01*
X-47514Y148649D01*
X-47812Y148848D01*
X-48163Y148918D01*
D02*
G37*
G36*
X-84501Y106500D02*
X-86500D01*
Y104501D01*
X-85584Y104881D01*
X-84881Y105584D01*
X-84501Y106500D01*
D02*
G37*
G36*
X-87500D02*
X-89499D01*
X-89119Y105584D01*
X-88416Y104881D01*
X-87500Y104501D01*
Y106500D01*
D02*
G37*
G36*
X-9500Y105499D02*
Y103500D01*
X-7501D01*
X-7881Y104416D01*
X-8584Y105119D01*
X-9500Y105499D01*
D02*
G37*
G36*
X-10500D02*
X-11416Y105119D01*
X-12119Y104416D01*
X-12499Y103500D01*
X-10500D01*
Y105499D01*
D02*
G37*
G36*
X-7501Y102500D02*
X-9500D01*
Y100501D01*
X-8584Y100881D01*
X-7881Y101584D01*
X-7501Y102500D01*
D02*
G37*
G36*
X-10500D02*
X-12499D01*
X-12119Y101584D01*
X-11416Y100881D01*
X-10500Y100501D01*
Y102500D01*
D02*
G37*
G36*
X-7279Y97866D02*
X-9249D01*
Y95500D01*
X-7279D01*
Y97866D01*
D02*
G37*
G36*
X-10249D02*
X-12219D01*
Y95500D01*
X-10249D01*
Y97866D01*
D02*
G37*
G36*
X-7279Y94500D02*
X-9249D01*
Y92133D01*
X-7279D01*
Y94500D01*
D02*
G37*
G36*
X-10249D02*
X-12219D01*
Y92133D01*
X-10249D01*
Y94500D01*
D02*
G37*
G36*
X-27088Y98369D02*
X-32638D01*
Y91631D01*
X-27088D01*
Y94082D01*
X-19121D01*
Y91733D01*
X-13382D01*
Y98267D01*
X-19121D01*
Y95918D01*
X-21350D01*
Y96328D01*
X-21601Y96935D01*
X-22065Y97399D01*
X-22672Y97650D01*
X-23328D01*
X-23935Y97399D01*
X-24399Y96935D01*
X-24650Y96328D01*
Y95918D01*
X-27088D01*
Y98369D01*
D02*
G37*
G36*
X-109965Y91669D02*
X-113500D01*
Y90004D01*
X-109965D01*
Y91669D01*
D02*
G37*
G36*
X-114500D02*
X-118035D01*
Y90004D01*
X-114500D01*
Y91669D01*
D02*
G37*
G36*
X-109965Y89004D02*
X-113500D01*
Y87339D01*
X-109965D01*
Y89004D01*
D02*
G37*
G36*
X-114500D02*
X-118035D01*
Y87339D01*
X-114500D01*
Y89004D01*
D02*
G37*
G36*
X-122441Y88716D02*
X-124500D01*
Y86657D01*
X-122441D01*
Y88716D01*
D02*
G37*
G36*
X-125500D02*
X-127559D01*
Y86657D01*
X-125500D01*
Y88716D01*
D02*
G37*
G36*
X-122441Y85657D02*
X-124500D01*
Y83598D01*
X-122441D01*
Y85657D01*
D02*
G37*
G36*
X-125500D02*
X-127559D01*
Y83598D01*
X-125500D01*
Y85657D01*
D02*
G37*
G36*
X-88331Y82035D02*
X-89996D01*
Y78500D01*
X-88331D01*
Y82035D01*
D02*
G37*
G36*
X-90996D02*
X-92661D01*
Y78500D01*
X-90996D01*
Y82035D01*
D02*
G37*
G36*
X-55476Y79518D02*
X-60744D01*
Y77000D01*
X-52524D01*
X-52561Y77281D01*
X-52863Y78009D01*
X-53342Y78634D01*
X-53967Y79114D01*
X-54695Y79415D01*
X-55476Y79518D01*
D02*
G37*
G36*
X-61744D02*
X-67012D01*
X-67793Y79415D01*
X-68521Y79114D01*
X-69146Y78634D01*
X-69625Y78009D01*
X-69927Y77281D01*
X-69964Y77000D01*
X-61744D01*
Y79518D01*
D02*
G37*
G36*
X-88331Y77500D02*
X-89996D01*
Y73965D01*
X-88331D01*
Y77500D01*
D02*
G37*
G36*
X-90996D02*
X-92661D01*
Y73965D01*
X-90996D01*
Y77500D01*
D02*
G37*
G36*
X-52524Y76000D02*
X-60744D01*
Y73482D01*
X-55476D01*
X-54695Y73585D01*
X-53967Y73886D01*
X-53342Y74366D01*
X-52863Y74991D01*
X-52561Y75719D01*
X-52524Y76000D01*
D02*
G37*
G36*
X-61744D02*
X-69964D01*
X-69927Y75719D01*
X-69625Y74991D01*
X-69146Y74366D01*
X-68521Y73886D01*
X-67793Y73585D01*
X-67012Y73482D01*
X-61744D01*
Y76000D01*
D02*
G37*
G36*
X-49500Y73499D02*
Y71500D01*
X-47501D01*
X-47881Y72416D01*
X-48584Y73119D01*
X-49500Y73499D01*
D02*
G37*
G36*
X-50500D02*
X-51416Y73119D01*
X-52119Y72416D01*
X-52499Y71500D01*
X-50500D01*
Y73499D01*
D02*
G37*
G36*
X-90284Y71559D02*
X-92343D01*
Y69500D01*
X-90284D01*
Y71559D01*
D02*
G37*
G36*
X-93343D02*
X-95402D01*
Y69500D01*
X-93343D01*
Y71559D01*
D02*
G37*
G36*
X-47501Y70500D02*
X-49500D01*
Y68501D01*
X-48584Y68881D01*
X-47881Y69584D01*
X-47501Y70500D01*
D02*
G37*
G36*
X-50500D02*
X-52499D01*
X-52119Y69584D01*
X-51416Y68881D01*
X-50500Y68501D01*
Y70500D01*
D02*
G37*
G36*
X-90284Y68500D02*
X-92343D01*
Y66441D01*
X-90284D01*
Y68500D01*
D02*
G37*
G36*
X-93343D02*
X-95402D01*
Y66441D01*
X-93343D01*
Y68500D01*
D02*
G37*
G36*
X-24500Y33499D02*
Y31500D01*
X-22501D01*
X-22881Y32416D01*
X-23584Y33119D01*
X-24500Y33499D01*
D02*
G37*
G36*
X-25500D02*
X-26416Y33119D01*
X-27119Y32416D01*
X-27499Y31500D01*
X-25500D01*
Y33499D01*
D02*
G37*
G36*
X-22501Y30500D02*
X-24500D01*
Y28501D01*
X-23584Y28881D01*
X-22881Y29584D01*
X-22501Y30500D01*
D02*
G37*
G36*
X-25500D02*
X-27499D01*
X-27119Y29584D01*
X-26416Y28881D01*
X-25500Y28501D01*
Y30500D01*
D02*
G37*
G36*
X-91933Y28571D02*
X-94886D01*
X-95618Y28425D01*
X-96239Y28010D01*
X-96653Y27390D01*
X-96799Y26658D01*
Y21342D01*
X-96653Y20610D01*
X-96239Y19990D01*
X-95618Y19575D01*
X-94886Y19429D01*
X-91933D01*
X-91201Y19575D01*
X-90580Y19990D01*
X-90166Y20610D01*
X-90020Y21342D01*
Y22318D01*
X-35720D01*
X-25817Y12414D01*
X-25828Y12386D01*
X-25945Y11500D01*
X-25828Y10615D01*
X-25487Y9789D01*
X-24943Y9081D01*
X-24234Y8537D01*
X-23409Y8195D01*
X-22524Y8079D01*
X-10988D01*
X-10103Y8195D01*
X-9278Y8537D01*
X-8569Y9081D01*
X-8025Y9789D01*
X-7683Y10615D01*
X-7567Y11500D01*
X-7683Y12386D01*
X-8025Y13211D01*
X-8569Y13919D01*
X-9278Y14463D01*
X-10103Y14805D01*
X-10988Y14921D01*
X-22524D01*
X-23409Y14805D01*
X-23438Y14793D01*
X-33834Y25190D01*
X-34380Y25554D01*
X-35024Y25682D01*
X-90020D01*
Y26658D01*
X-90166Y27390D01*
X-90580Y28010D01*
X-91201Y28425D01*
X-91933Y28571D01*
D02*
G37*
G36*
X-115555D02*
X-118508D01*
X-119240Y28425D01*
X-119861Y28010D01*
X-120275Y27390D01*
X-120421Y26658D01*
Y21342D01*
X-120275Y20610D01*
X-119861Y19990D01*
X-119240Y19575D01*
X-118714Y19470D01*
Y16126D01*
X-118586Y15482D01*
X-118221Y14936D01*
X-109791Y6506D01*
Y4020D01*
X-109645Y3288D01*
X-109231Y2667D01*
X-108610Y2252D01*
X-107878Y2107D01*
X-102563D01*
X-101831Y2252D01*
X-101210Y2667D01*
X-100795Y3288D01*
X-100650Y4020D01*
Y4318D01*
X-68975D01*
X-68332Y4446D01*
X-67786Y4810D01*
X-66321Y6275D01*
X-66321Y6275D01*
X-65957Y6821D01*
X-65829Y7464D01*
Y8079D01*
X-55476D01*
X-54591Y8195D01*
X-53766Y8537D01*
X-53057Y9081D01*
X-52513Y9789D01*
X-52171Y10615D01*
X-52055Y11500D01*
X-52171Y12386D01*
X-52513Y13211D01*
X-53057Y13919D01*
X-53766Y14463D01*
X-54591Y14805D01*
X-55476Y14921D01*
X-67012D01*
X-67897Y14805D01*
X-68722Y14463D01*
X-69431Y13919D01*
X-69975Y13211D01*
X-70316Y12386D01*
X-70433Y11500D01*
X-70316Y10615D01*
X-69975Y9789D01*
X-69431Y9081D01*
X-69193Y8898D01*
Y8161D01*
X-69672Y7682D01*
X-100791D01*
X-100795Y7705D01*
X-101210Y8325D01*
X-101831Y8740D01*
X-102563Y8885D01*
X-107412D01*
X-115349Y16823D01*
Y19470D01*
X-114823Y19575D01*
X-114202Y19990D01*
X-113787Y20610D01*
X-113642Y21342D01*
Y26658D01*
X-113787Y27390D01*
X-114202Y28010D01*
X-114823Y28425D01*
X-115555Y28571D01*
D02*
G37*
%LPD*%
G36*
X-64069Y128634D02*
X-64301Y128402D01*
X-64552Y127795D01*
Y127139D01*
X-64301Y126532D01*
X-63836Y126068D01*
X-63230Y125817D01*
X-62902D01*
Y118989D01*
X-63018Y118906D01*
X-63402Y118799D01*
X-73190Y128588D01*
X-72983Y129088D01*
X-66631D01*
Y130489D01*
X-66131Y130696D01*
X-64069Y128634D01*
D02*
G37*
D18*
X-90496Y78000D02*
D03*
X-77504D02*
D03*
D19*
X-30869Y130945D02*
D03*
X-17169Y104380D02*
D03*
X-44000Y145000D02*
D03*
X-59098Y127353D02*
D03*
X-23000Y96000D02*
D03*
X-20000Y140000D02*
D03*
X-77000Y139000D02*
D03*
X-62902Y127467D02*
D03*
D23*
X-9000Y130000D02*
D03*
X-139000Y129000D02*
D03*
D24*
X-9000Y140000D02*
D03*
X-139000Y139000D02*
D03*
D25*
X-125000Y105843D02*
D03*
X-73157Y69000D02*
D03*
D26*
X-125000Y86157D02*
D03*
D29*
X-92843Y69000D02*
D03*
D31*
X-76589Y84411D02*
X-62000Y99000D01*
X-76589Y78915D02*
Y84411D01*
X-75700Y73900D02*
X-67000Y65200D01*
X-93409Y24000D02*
X-93040D01*
X-121653Y102496D02*
X-114000D01*
X-125000Y105843D02*
X-121653Y102496D01*
X-69235Y103911D02*
X-64725D01*
X-71324Y106000D02*
X-69235Y103911D01*
X-77504Y78000D02*
X-76589Y78915D01*
X-72000Y106000D02*
X-71324D01*
X-106402Y5496D02*
X-105220D01*
X-117031Y16126D02*
X-106402Y5496D01*
X-117031Y16126D02*
Y24000D01*
X-105220Y5496D02*
X-104716Y6000D01*
X-68975D01*
X-93040Y24000D02*
X-35024D01*
X-22524Y11500D01*
X-67511Y7464D02*
Y9890D01*
X-68975Y6000D02*
X-67511Y7464D01*
X-65901Y11500D02*
X-61244D01*
X-67511Y9890D02*
X-65901Y11500D01*
X-22524D02*
X-16756D01*
X-67000Y65200D02*
X-46400D01*
X-35100Y76500D01*
X-16756D01*
D32*
X-59993Y101495D02*
Y103208D01*
X-60016Y103230D02*
X-59993Y103208D01*
Y101495D02*
X-53498Y95000D01*
X-84406Y131863D02*
X-82531Y129988D01*
X-85000Y131863D02*
X-84406D01*
X-82531Y129394D02*
Y129988D01*
Y129394D02*
X-77504Y124367D01*
Y78000D02*
Y124367D01*
X-125500Y111600D02*
Y141500D01*
X-119000Y148000D02*
X-48163D01*
X-125500Y141500D02*
X-119000Y148000D01*
X-48163D02*
X-42469Y142306D01*
X-53498Y95000D02*
X-38137D01*
X-40450Y140287D02*
X-38855Y138692D01*
X-42469Y142012D02*
X-40744Y140287D01*
X-40450D01*
X-42469Y142012D02*
Y142306D01*
X-46000Y134737D02*
X-40600Y140137D01*
X-61984Y114770D02*
Y127847D01*
X-66000Y131863D02*
X-61984Y127847D01*
X-57367Y130779D02*
X-55397Y132749D01*
X-57367Y130382D02*
Y130779D01*
X-55397Y132749D02*
X-55000D01*
X-60016Y127733D02*
X-57367Y130382D01*
X-60016Y114770D02*
Y127733D01*
X-55000Y132749D02*
X-54068Y133681D01*
X-46000Y129379D02*
Y134737D01*
Y128000D02*
Y129000D01*
Y120286D02*
Y128000D01*
Y129000D02*
Y129379D01*
X-45414Y119700D02*
X-40000D01*
X-46000Y120286D02*
X-45414Y119700D01*
X-40600Y140137D02*
X-40000D01*
X-64725Y103911D02*
X-63953D01*
X-40000Y131863D02*
X-28000D01*
X-58047Y104800D02*
X-32300D01*
X-77504Y73900D02*
X-75700D01*
X-37251Y110000D02*
Y116951D01*
X-40000Y119700D02*
X-37251Y116951D01*
X-70000Y131863D02*
X-66000D01*
X-125500Y111600D02*
X-122400Y108500D01*
X-101760D01*
X-101260Y109000D01*
Y111864D01*
X-38137Y95000D02*
Y98863D01*
X-36000Y101000D01*
X-19251D01*
X-16251Y104000D01*
Y110000D01*
X-29863Y95000D02*
X-16251D01*
X-25000Y140137D02*
X-16163D01*
X-16100Y140200D01*
X-9200D01*
X-9000Y140000D01*
X-85000Y140137D02*
X-79137D01*
X-77000Y138000D01*
Y131100D02*
Y138000D01*
Y131100D02*
X-63953Y118053D01*
Y114770D02*
Y118053D01*
X-101260Y120136D02*
Y125260D01*
X-101749Y125749D02*
X-101260Y125260D01*
X-101749Y125749D02*
Y130000D01*
X-94900Y131863D02*
X-85000D01*
X-96763Y130000D02*
X-94900Y131863D01*
X-101749Y130000D02*
X-96763D01*
X-28000Y131863D02*
X-25674D01*
X-30749Y129114D02*
X-28000Y131863D01*
X-30749Y110000D02*
Y129114D01*
X-25674Y131863D02*
X-25000D01*
X-30749Y106351D02*
Y110000D01*
X-32300Y104800D02*
X-30749Y106351D01*
X-58047Y103230D02*
Y104800D01*
X-63953Y103230D02*
Y103911D01*
X-114784Y122000D02*
X-112920Y120136D01*
X-120000Y122000D02*
X-114784D01*
X-112920Y120136D02*
X-108740D01*
X-122021Y119979D02*
X-120000Y122000D01*
X-122021Y119919D02*
Y119979D01*
X-112366Y113366D02*
X-109242D01*
X-116000Y117000D02*
X-112366Y113366D01*
X-108740Y111864D02*
Y112864D01*
X-109242Y113366D02*
X-108740Y112864D01*
X-77504Y73900D02*
Y78000D01*
D33*
X-105220Y5496D02*
D03*
D34*
X-117031Y24000D02*
D03*
X-93409D02*
D03*
D35*
X-118000Y140000D02*
D03*
X-10000Y103000D02*
D03*
X-62000Y140000D02*
D03*
X-49000Y112000D02*
D03*
X-72000Y106000D02*
D03*
X-122021Y119919D02*
D03*
X-116000Y117000D02*
D03*
X-121500Y113501D02*
D03*
X-50000Y71000D02*
D03*
X-88000Y124000D02*
D03*
X-87000Y107000D02*
D03*
X-72000Y113000D02*
D03*
X-25000Y31000D02*
D03*
D36*
X-61244Y11500D02*
D03*
Y76500D02*
D03*
X-16756Y11500D02*
D03*
Y76500D02*
D03*
D37*
X-114000Y102496D02*
D03*
Y89504D02*
D03*
D38*
X-61000Y109000D02*
D03*
D39*
X-58047Y103230D02*
D03*
D40*
X-60016D02*
D03*
X-61984D02*
D03*
X-63953D02*
D03*
Y114770D02*
D03*
X-61984D02*
D03*
X-60016D02*
D03*
X-58047D02*
D03*
D41*
X-101260Y120136D02*
D03*
X-105000D02*
D03*
X-108740D02*
D03*
Y111864D02*
D03*
X-105000D02*
D03*
D42*
X-101260D02*
D03*
D43*
X-85000Y131863D02*
D03*
Y140137D02*
D03*
X-70000D02*
D03*
Y131863D02*
D03*
X-40000Y140137D02*
D03*
Y131863D02*
D03*
X-25000D02*
D03*
Y140137D02*
D03*
D44*
X-30749Y110000D02*
D03*
X-37251D02*
D03*
X-108251Y130000D02*
D03*
X-101749D02*
D03*
X-16251Y95000D02*
D03*
X-9749D02*
D03*
X-16251Y110000D02*
D03*
X-9749D02*
D03*
D45*
X-55000Y132749D02*
D03*
Y139251D02*
D03*
D46*
X-38137Y95000D02*
D03*
X-29863D02*
D03*
D47*
X-62000Y101107D02*
Y103214D01*
X-61984Y103230D01*
D48*
X-62000Y99000D02*
Y101107D01*
M02*
