G04*
G04 #@! TF.GenerationSoftware,Altium Limited,Altium Designer,22.3.1 (43)*
G04*
G04 Layer_Physical_Order=3*
G04 Layer_Color=16440176*
%FSLAX25Y25*%
%MOIN*%
G70*
G04*
G04 #@! TF.SameCoordinates,6ADC0360-3E08-4B8B-B3B3-E68A1261090F*
G04*
G04*
G04 #@! TF.FilePolarity,Positive*
G04*
G01*
G75*
%ADD23R,0.06181X0.06181*%
%ADD26R,0.05118X0.05118*%
%ADD29R,0.05118X0.05118*%
%ADD35C,0.05000*%
G36*
X0Y0D02*
X-150000D01*
Y150000D01*
X0D01*
Y0D01*
D02*
G37*
%LPC*%
G36*
X-61500Y142499D02*
Y140500D01*
X-59501D01*
X-59881Y141416D01*
X-60584Y142119D01*
X-61500Y142499D01*
D02*
G37*
G36*
X-62500D02*
X-63416Y142119D01*
X-64119Y141416D01*
X-64499Y140500D01*
X-62500D01*
Y142499D01*
D02*
G37*
G36*
X-117500D02*
Y140500D01*
X-115501D01*
X-115881Y141416D01*
X-116584Y142119D01*
X-117500Y142499D01*
D02*
G37*
G36*
X-118500D02*
X-119416Y142119D01*
X-120119Y141416D01*
X-120499Y140500D01*
X-118500D01*
Y142499D01*
D02*
G37*
G36*
X-59501Y139500D02*
X-61500D01*
Y137501D01*
X-60584Y137881D01*
X-59881Y138584D01*
X-59501Y139500D01*
D02*
G37*
G36*
X-62500D02*
X-64499D01*
X-64119Y138584D01*
X-63416Y137881D01*
X-62500Y137501D01*
Y139500D01*
D02*
G37*
G36*
X-115501D02*
X-117500D01*
Y137501D01*
X-116584Y137881D01*
X-115881Y138584D01*
X-115501Y139500D01*
D02*
G37*
G36*
X-118500D02*
X-120499D01*
X-120119Y138584D01*
X-119416Y137881D01*
X-118500Y137501D01*
Y139500D01*
D02*
G37*
G36*
X-8540Y143491D02*
X-9460D01*
X-10347Y143253D01*
X-11143Y142793D01*
X-11793Y142143D01*
X-12253Y141347D01*
X-12491Y140460D01*
Y139541D01*
X-12253Y138653D01*
X-11793Y137857D01*
X-11143Y137207D01*
X-10347Y136747D01*
X-9460Y136509D01*
X-8540D01*
X-7653Y136747D01*
X-6857Y137207D01*
X-6207Y137857D01*
X-5747Y138653D01*
X-5509Y139541D01*
Y140460D01*
X-5747Y141347D01*
X-6207Y142143D01*
X-6857Y142793D01*
X-7653Y143253D01*
X-8540Y143491D01*
D02*
G37*
G36*
X-138540Y142491D02*
X-139460D01*
X-140347Y142253D01*
X-141143Y141793D01*
X-141793Y141143D01*
X-142253Y140347D01*
X-142491Y139460D01*
Y138540D01*
X-142253Y137653D01*
X-141793Y136857D01*
X-141143Y136207D01*
X-140347Y135747D01*
X-139460Y135509D01*
X-138540D01*
X-137653Y135747D01*
X-136857Y136207D01*
X-136207Y136857D01*
X-135747Y137653D01*
X-135509Y138540D01*
Y139460D01*
X-135747Y140347D01*
X-136207Y141143D01*
X-136857Y141793D01*
X-137653Y142253D01*
X-138540Y142491D01*
D02*
G37*
G36*
X-5909Y133091D02*
X-8500D01*
Y130500D01*
X-5909D01*
Y133091D01*
D02*
G37*
G36*
X-9500D02*
X-12091D01*
Y130500D01*
X-9500D01*
Y133091D01*
D02*
G37*
G36*
X-135909Y132091D02*
X-138500D01*
Y129500D01*
X-135909D01*
Y132091D01*
D02*
G37*
G36*
X-139500D02*
X-142091D01*
Y129500D01*
X-139500D01*
Y132091D01*
D02*
G37*
G36*
X-5909Y129500D02*
X-8500D01*
Y126909D01*
X-5909D01*
Y129500D01*
D02*
G37*
G36*
X-9500D02*
X-12091D01*
Y126909D01*
X-9500D01*
Y129500D01*
D02*
G37*
G36*
X-135909Y128500D02*
X-138500D01*
Y125909D01*
X-135909D01*
Y128500D01*
D02*
G37*
G36*
X-139500D02*
X-142091D01*
Y125909D01*
X-139500D01*
Y128500D01*
D02*
G37*
G36*
X-87500Y126499D02*
Y124500D01*
X-85501D01*
X-85881Y125416D01*
X-86584Y126119D01*
X-87500Y126499D01*
D02*
G37*
G36*
X-88500D02*
X-89416Y126119D01*
X-90119Y125416D01*
X-90499Y124500D01*
X-88500D01*
Y126499D01*
D02*
G37*
G36*
X-85501Y123500D02*
X-87500D01*
Y121501D01*
X-86584Y121881D01*
X-85881Y122584D01*
X-85501Y123500D01*
D02*
G37*
G36*
X-88500D02*
X-90499D01*
X-90119Y122584D01*
X-89416Y121881D01*
X-88500Y121501D01*
Y123500D01*
D02*
G37*
G36*
X-121639Y122819D02*
X-122402D01*
X-123140Y122622D01*
X-123801Y122240D01*
X-124341Y121700D01*
X-124723Y121039D01*
X-124921Y120301D01*
Y119538D01*
X-124723Y118800D01*
X-124341Y118139D01*
X-123801Y117599D01*
X-123140Y117217D01*
X-122402Y117019D01*
X-121639D01*
X-120901Y117217D01*
X-120240Y117599D01*
X-119700Y118139D01*
X-119318Y118800D01*
X-119121Y119538D01*
Y120301D01*
X-119318Y121039D01*
X-119700Y121700D01*
X-120240Y122240D01*
X-120901Y122622D01*
X-121639Y122819D01*
D02*
G37*
G36*
X-115618Y119900D02*
X-116382D01*
X-117119Y119702D01*
X-117781Y119321D01*
X-118321Y118781D01*
X-118702Y118119D01*
X-118900Y117382D01*
Y116618D01*
X-118702Y115881D01*
X-118321Y115219D01*
X-117781Y114679D01*
X-117119Y114298D01*
X-116382Y114100D01*
X-115618D01*
X-114881Y114298D01*
X-114219Y114679D01*
X-113679Y115219D01*
X-113298Y115881D01*
X-113100Y116618D01*
Y117382D01*
X-113298Y118119D01*
X-113679Y118781D01*
X-114219Y119321D01*
X-114881Y119702D01*
X-115618Y119900D01*
D02*
G37*
G36*
X-121000Y116000D02*
Y114001D01*
X-119001D01*
X-119381Y114917D01*
X-120084Y115621D01*
X-121000Y116000D01*
D02*
G37*
G36*
X-122000D02*
X-122916Y115621D01*
X-123619Y114917D01*
X-123999Y114001D01*
X-122000D01*
Y116000D01*
D02*
G37*
G36*
X-71500Y115499D02*
Y113500D01*
X-69501D01*
X-69881Y114416D01*
X-70584Y115119D01*
X-71500Y115499D01*
D02*
G37*
G36*
X-72500D02*
X-73416Y115119D01*
X-74119Y114416D01*
X-74499Y113500D01*
X-72500D01*
Y115499D01*
D02*
G37*
G36*
X-48500Y114499D02*
Y112500D01*
X-46501D01*
X-46881Y113416D01*
X-47584Y114119D01*
X-48500Y114499D01*
D02*
G37*
G36*
X-49500D02*
X-50416Y114119D01*
X-51119Y113416D01*
X-51499Y112500D01*
X-49500D01*
Y114499D01*
D02*
G37*
G36*
X-119001Y113001D02*
X-121000D01*
Y111002D01*
X-120084Y111382D01*
X-119381Y112085D01*
X-119001Y113001D01*
D02*
G37*
G36*
X-122000D02*
X-123999D01*
X-123619Y112085D01*
X-122916Y111382D01*
X-122000Y111002D01*
Y113001D01*
D02*
G37*
G36*
X-69501Y112500D02*
X-71500D01*
Y110501D01*
X-70584Y110881D01*
X-69881Y111584D01*
X-69501Y112500D01*
D02*
G37*
G36*
X-72500D02*
X-74499D01*
X-74119Y111584D01*
X-73416Y110881D01*
X-72500Y110501D01*
Y112500D01*
D02*
G37*
G36*
X-46501Y111500D02*
X-48500D01*
Y109501D01*
X-47584Y109881D01*
X-46881Y110584D01*
X-46501Y111500D01*
D02*
G37*
G36*
X-49500D02*
X-51499D01*
X-51119Y110584D01*
X-50416Y109881D01*
X-49500Y109501D01*
Y111500D01*
D02*
G37*
G36*
X-86500Y109499D02*
Y107500D01*
X-84501D01*
X-84881Y108416D01*
X-85584Y109119D01*
X-86500Y109499D01*
D02*
G37*
G36*
X-87500D02*
X-88416Y109119D01*
X-89119Y108416D01*
X-89499Y107500D01*
X-87500D01*
Y109499D01*
D02*
G37*
G36*
X-84501Y106500D02*
X-86500D01*
Y104501D01*
X-85584Y104881D01*
X-84881Y105584D01*
X-84501Y106500D01*
D02*
G37*
G36*
X-87500D02*
X-89499D01*
X-89119Y105584D01*
X-88416Y104881D01*
X-87500Y104501D01*
Y106500D01*
D02*
G37*
G36*
X-9500Y105499D02*
Y103500D01*
X-7501D01*
X-7881Y104416D01*
X-8584Y105119D01*
X-9500Y105499D01*
D02*
G37*
G36*
X-10500D02*
X-11416Y105119D01*
X-12119Y104416D01*
X-12499Y103500D01*
X-10500D01*
Y105499D01*
D02*
G37*
G36*
X-71618Y108900D02*
X-72382D01*
X-73119Y108702D01*
X-73781Y108321D01*
X-74321Y107781D01*
X-74702Y107119D01*
X-74900Y106382D01*
Y105618D01*
X-74702Y104881D01*
X-74321Y104219D01*
X-73781Y103679D01*
X-73119Y103298D01*
X-72382Y103100D01*
X-71618D01*
X-70881Y103298D01*
X-70219Y103679D01*
X-69679Y104219D01*
X-69298Y104881D01*
X-69100Y105618D01*
Y106382D01*
X-69298Y107119D01*
X-69679Y107781D01*
X-70219Y108321D01*
X-70881Y108702D01*
X-71618Y108900D01*
D02*
G37*
G36*
X-124610Y108802D02*
X-125390D01*
X-126142Y108600D01*
X-126817Y108210D01*
X-127368Y107659D01*
X-127757Y106985D01*
X-127959Y106232D01*
Y105453D01*
X-127757Y104701D01*
X-127368Y104026D01*
X-126817Y103475D01*
X-126142Y103085D01*
X-125390Y102884D01*
X-124610D01*
X-123858Y103085D01*
X-123183Y103475D01*
X-122632Y104026D01*
X-122243Y104701D01*
X-122041Y105453D01*
Y106232D01*
X-122243Y106985D01*
X-122632Y107659D01*
X-123183Y108210D01*
X-123858Y108600D01*
X-124610Y108802D01*
D02*
G37*
G36*
X-7501Y102500D02*
X-9500D01*
Y100501D01*
X-8584Y100881D01*
X-7881Y101584D01*
X-7501Y102500D01*
D02*
G37*
G36*
X-10500D02*
X-12499D01*
X-12119Y101584D01*
X-11416Y100881D01*
X-10500Y100501D01*
Y102500D01*
D02*
G37*
G36*
X-122441Y88716D02*
X-124500D01*
Y86657D01*
X-122441D01*
Y88716D01*
D02*
G37*
G36*
X-125500D02*
X-127559D01*
Y86657D01*
X-125500D01*
Y88716D01*
D02*
G37*
G36*
X-122441Y85657D02*
X-124500D01*
Y83598D01*
X-122441D01*
Y85657D01*
D02*
G37*
G36*
X-125500D02*
X-127559D01*
Y83598D01*
X-125500D01*
Y85657D01*
D02*
G37*
G36*
X-49500Y73499D02*
Y71500D01*
X-47501D01*
X-47881Y72416D01*
X-48584Y73119D01*
X-49500Y73499D01*
D02*
G37*
G36*
X-50500D02*
X-51416Y73119D01*
X-52119Y72416D01*
X-52499Y71500D01*
X-50500D01*
Y73499D01*
D02*
G37*
G36*
X-90284Y71559D02*
X-92343D01*
Y69500D01*
X-90284D01*
Y71559D01*
D02*
G37*
G36*
X-93343D02*
X-95402D01*
Y69500D01*
X-93343D01*
Y71559D01*
D02*
G37*
G36*
X-47501Y70500D02*
X-49500D01*
Y68501D01*
X-48584Y68881D01*
X-47881Y69584D01*
X-47501Y70500D01*
D02*
G37*
G36*
X-50500D02*
X-52499D01*
X-52119Y69584D01*
X-51416Y68881D01*
X-50500Y68501D01*
Y70500D01*
D02*
G37*
G36*
X-90284Y68500D02*
X-92343D01*
Y66441D01*
X-90284D01*
Y68500D01*
D02*
G37*
G36*
X-93343D02*
X-95402D01*
Y66441D01*
X-93343D01*
Y68500D01*
D02*
G37*
G36*
X-72768Y71959D02*
X-73547D01*
X-74300Y71757D01*
X-74974Y71368D01*
X-75525Y70817D01*
X-75915Y70142D01*
X-76116Y69390D01*
Y68610D01*
X-75915Y67858D01*
X-75525Y67183D01*
X-74974Y66632D01*
X-74300Y66243D01*
X-73547Y66041D01*
X-72768D01*
X-72015Y66243D01*
X-71341Y66632D01*
X-70790Y67183D01*
X-70400Y67858D01*
X-70198Y68610D01*
Y69390D01*
X-70400Y70142D01*
X-70790Y70817D01*
X-71341Y71368D01*
X-72015Y71757D01*
X-72768Y71959D01*
D02*
G37*
G36*
X-24500Y33499D02*
Y31500D01*
X-22501D01*
X-22881Y32416D01*
X-23584Y33119D01*
X-24500Y33499D01*
D02*
G37*
G36*
X-25500D02*
X-26416Y33119D01*
X-27119Y32416D01*
X-27499Y31500D01*
X-25500D01*
Y33499D01*
D02*
G37*
G36*
X-22501Y30500D02*
X-24500D01*
Y28501D01*
X-23584Y28881D01*
X-22881Y29584D01*
X-22501Y30500D01*
D02*
G37*
G36*
X-25500D02*
X-27499D01*
X-27119Y29584D01*
X-26416Y28881D01*
X-25500Y28501D01*
Y30500D01*
D02*
G37*
G36*
X-91933Y28571D02*
X-94886D01*
X-95618Y28425D01*
X-96239Y28010D01*
X-96653Y27390D01*
X-96799Y26658D01*
Y21342D01*
X-96653Y20610D01*
X-96239Y19990D01*
X-95618Y19575D01*
X-94886Y19429D01*
X-91933D01*
X-91201Y19575D01*
X-90580Y19990D01*
X-90166Y20610D01*
X-90020Y21342D01*
Y26658D01*
X-90166Y27390D01*
X-90580Y28010D01*
X-91201Y28425D01*
X-91933Y28571D01*
D02*
G37*
G36*
X-115555D02*
X-118508D01*
X-119240Y28425D01*
X-119861Y28010D01*
X-120275Y27390D01*
X-120421Y26658D01*
Y21342D01*
X-120275Y20610D01*
X-119861Y19990D01*
X-119240Y19575D01*
X-118508Y19429D01*
X-115555D01*
X-114823Y19575D01*
X-114202Y19990D01*
X-113787Y20610D01*
X-113642Y21342D01*
Y26658D01*
X-113787Y27390D01*
X-114202Y28010D01*
X-114823Y28425D01*
X-115555Y28571D01*
D02*
G37*
G36*
X-102563Y8885D02*
X-107878D01*
X-108610Y8740D01*
X-109231Y8325D01*
X-109645Y7705D01*
X-109791Y6972D01*
Y4020D01*
X-109645Y3288D01*
X-109231Y2667D01*
X-108610Y2252D01*
X-107878Y2107D01*
X-102563D01*
X-101831Y2252D01*
X-101210Y2667D01*
X-100795Y3288D01*
X-100650Y4020D01*
Y6972D01*
X-100795Y7705D01*
X-101210Y8325D01*
X-101831Y8740D01*
X-102563Y8885D01*
D02*
G37*
%LPD*%
D23*
X-9000Y130000D02*
D03*
X-139000Y129000D02*
D03*
D26*
X-125000Y86157D02*
D03*
D29*
X-92843Y69000D02*
D03*
D35*
X-118000Y140000D02*
D03*
X-10000Y103000D02*
D03*
X-62000Y140000D02*
D03*
X-49000Y112000D02*
D03*
X-121500Y113501D02*
D03*
X-50000Y71000D02*
D03*
X-88000Y124000D02*
D03*
X-87000Y107000D02*
D03*
X-72000Y113000D02*
D03*
X-25000Y31000D02*
D03*
M02*
