G04*
G04 #@! TF.GenerationSoftware,Altium Limited,Altium Designer,22.3.1 (43)*
G04*
G04 Layer_Physical_Order=1*
G04 Layer_Color=255*
%FSLAX25Y25*%
%MOIN*%
G70*
G04*
G04 #@! TF.SameCoordinates,6ADC0360-3E08-4B8B-B3B3-E68A1261090F*
G04*
G04*
G04 #@! TF.FilePolarity,Positive*
G04*
G01*
G75*
%ADD15R,0.11417X0.21260*%
%ADD16R,0.04134X0.05709*%
%ADD17R,0.06772X0.12598*%
%ADD18R,0.04331X0.08071*%
%ADD19C,0.02500*%
%ADD23R,0.06181X0.06181*%
%ADD24C,0.06181*%
%ADD25C,0.05118*%
%ADD26R,0.05118X0.05118*%
%ADD29R,0.05118X0.05118*%
%ADD31C,0.02500*%
%ADD32C,0.01000*%
G04:AMPARAMS|DCode=33|XSize=82.68mil|YSize=59.06mil|CornerRadius=14.76mil|HoleSize=0mil|Usage=FLASHONLY|Rotation=180.000|XOffset=0mil|YOffset=0mil|HoleType=Round|Shape=RoundedRectangle|*
%AMROUNDEDRECTD33*
21,1,0.08268,0.02953,0,0,180.0*
21,1,0.05315,0.05906,0,0,180.0*
1,1,0.02953,-0.02657,0.01476*
1,1,0.02953,0.02657,0.01476*
1,1,0.02953,0.02657,-0.01476*
1,1,0.02953,-0.02657,-0.01476*
%
%ADD33ROUNDEDRECTD33*%
G04:AMPARAMS|DCode=34|XSize=82.68mil|YSize=59.06mil|CornerRadius=14.76mil|HoleSize=0mil|Usage=FLASHONLY|Rotation=90.000|XOffset=0mil|YOffset=0mil|HoleType=Round|Shape=RoundedRectangle|*
%AMROUNDEDRECTD34*
21,1,0.08268,0.02953,0,0,90.0*
21,1,0.05315,0.05906,0,0,90.0*
1,1,0.02953,0.01476,0.02657*
1,1,0.02953,0.01476,-0.02657*
1,1,0.02953,-0.01476,-0.02657*
1,1,0.02953,-0.01476,0.02657*
%
%ADD34ROUNDEDRECTD34*%
%ADD35C,0.05000*%
G36*
X0Y0D02*
X-150000D01*
Y150000D01*
X0D01*
Y0D01*
D02*
G37*
%LPC*%
G36*
X-61500Y142499D02*
Y140500D01*
X-59501D01*
X-59881Y141416D01*
X-60584Y142119D01*
X-61500Y142499D01*
D02*
G37*
G36*
X-62500D02*
X-63416Y142119D01*
X-64119Y141416D01*
X-64499Y140500D01*
X-62500D01*
Y142499D01*
D02*
G37*
G36*
X-117500D02*
Y140500D01*
X-115501D01*
X-115881Y141416D01*
X-116584Y142119D01*
X-117500Y142499D01*
D02*
G37*
G36*
X-118500D02*
X-119416Y142119D01*
X-120119Y141416D01*
X-120499Y140500D01*
X-118500D01*
Y142499D01*
D02*
G37*
G36*
X-59501Y139500D02*
X-61500D01*
Y137501D01*
X-60584Y137881D01*
X-59881Y138584D01*
X-59501Y139500D01*
D02*
G37*
G36*
X-62500D02*
X-64499D01*
X-64119Y138584D01*
X-63416Y137881D01*
X-62500Y137501D01*
Y139500D01*
D02*
G37*
G36*
X-115501D02*
X-117500D01*
Y137501D01*
X-116584Y137881D01*
X-115881Y138584D01*
X-115501Y139500D01*
D02*
G37*
G36*
X-118500D02*
X-120499D01*
X-120119Y138584D01*
X-119416Y137881D01*
X-118500Y137501D01*
Y139500D01*
D02*
G37*
G36*
X-8540Y143491D02*
X-9460D01*
X-10347Y143253D01*
X-11143Y142793D01*
X-11793Y142143D01*
X-12253Y141347D01*
X-12491Y140460D01*
Y139541D01*
X-12253Y138653D01*
X-11793Y137857D01*
X-11143Y137207D01*
X-10347Y136747D01*
X-9460Y136509D01*
X-8540D01*
X-7653Y136747D01*
X-6857Y137207D01*
X-6207Y137857D01*
X-5747Y138653D01*
X-5509Y139541D01*
Y140460D01*
X-5747Y141347D01*
X-6207Y142143D01*
X-6857Y142793D01*
X-7653Y143253D01*
X-8540Y143491D01*
D02*
G37*
G36*
X-61500Y136146D02*
Y135500D01*
X-60854D01*
X-60940Y135708D01*
X-61292Y136060D01*
X-61500Y136146D01*
D02*
G37*
G36*
X-62500D02*
X-62708Y136060D01*
X-63060Y135708D01*
X-63146Y135500D01*
X-62500D01*
Y136146D01*
D02*
G37*
G36*
X-94832Y138699D02*
X-102404D01*
Y134682D01*
X-106497D01*
X-106601Y134935D01*
X-107065Y135399D01*
X-107672Y135650D01*
X-108328D01*
X-108935Y135399D01*
X-109399Y134935D01*
X-109503Y134682D01*
X-111891D01*
Y136254D01*
X-116825D01*
Y129746D01*
X-115918D01*
Y119900D01*
X-116382D01*
X-117119Y119702D01*
X-117781Y119321D01*
X-118321Y118781D01*
X-118702Y118119D01*
X-118900Y117382D01*
Y116618D01*
X-118702Y115881D01*
X-118321Y115219D01*
X-117781Y114679D01*
X-117119Y114298D01*
X-116382Y114100D01*
X-115618D01*
X-114881Y114298D01*
X-114219Y114679D01*
X-113679Y115219D01*
X-113298Y115881D01*
X-113100Y116618D01*
Y117382D01*
X-113298Y118119D01*
X-113679Y118781D01*
X-114082Y119184D01*
Y128050D01*
X-113620Y128241D01*
X-111682Y126303D01*
Y113697D01*
X-117854Y107525D01*
X-122555D01*
X-122632Y107659D01*
X-123183Y108210D01*
X-123858Y108600D01*
X-124610Y108802D01*
X-125390D01*
X-126142Y108600D01*
X-126817Y108210D01*
X-127368Y107659D01*
X-127757Y106985D01*
X-127959Y106232D01*
Y105453D01*
X-127757Y104701D01*
X-127368Y104026D01*
X-126817Y103475D01*
X-126142Y103085D01*
X-125390Y102884D01*
X-124610D01*
X-123858Y103085D01*
X-123183Y103475D01*
X-122632Y104026D01*
X-122555Y104160D01*
X-117157D01*
X-116514Y104288D01*
X-115968Y104653D01*
X-108810Y111810D01*
X-108446Y112356D01*
X-108318Y113000D01*
Y127000D01*
X-108318Y127000D01*
X-108446Y127644D01*
X-108810Y128190D01*
X-108810Y128190D01*
X-111439Y130818D01*
X-111231Y131318D01*
X-102404D01*
Y125301D01*
X-94832D01*
Y138699D01*
D02*
G37*
G36*
X-60854Y134500D02*
X-61500D01*
Y133854D01*
X-61292Y133940D01*
X-60940Y134292D01*
X-60854Y134500D01*
D02*
G37*
G36*
X-62500D02*
X-63146D01*
X-63060Y134292D01*
X-62708Y133940D01*
X-62500Y133854D01*
Y134500D01*
D02*
G37*
G36*
X-5909Y133091D02*
X-8500D01*
Y130500D01*
X-5909D01*
Y133091D01*
D02*
G37*
G36*
X-9500D02*
X-12091D01*
Y130500D01*
X-9500D01*
Y133091D01*
D02*
G37*
G36*
X-135909Y132091D02*
X-138500D01*
Y129500D01*
X-135909D01*
Y132091D01*
D02*
G37*
G36*
X-139500D02*
X-142091D01*
Y129500D01*
X-139500D01*
Y132091D01*
D02*
G37*
G36*
X-5909Y129500D02*
X-8500D01*
Y126909D01*
X-5909D01*
Y129500D01*
D02*
G37*
G36*
X-9500D02*
X-12091D01*
Y126909D01*
X-9500D01*
Y129500D01*
D02*
G37*
G36*
X-135909Y128500D02*
X-138500D01*
Y125909D01*
X-135909D01*
Y128500D01*
D02*
G37*
G36*
X-139500D02*
X-142091D01*
Y125909D01*
X-139500D01*
Y128500D01*
D02*
G37*
G36*
X-87500Y126499D02*
Y124500D01*
X-85501D01*
X-85881Y125416D01*
X-86584Y126119D01*
X-87500Y126499D01*
D02*
G37*
G36*
X-88500D02*
X-89416Y126119D01*
X-90119Y125416D01*
X-90499Y124500D01*
X-88500D01*
Y126499D01*
D02*
G37*
G36*
X-69596Y138699D02*
X-77168D01*
Y128633D01*
X-78431D01*
X-79075Y128505D01*
X-79621Y128140D01*
X-79621Y128140D01*
X-85524Y122237D01*
X-85881Y122584D01*
X-85501Y123500D01*
X-87500D01*
Y121501D01*
X-86584Y121881D01*
X-86237Y121525D01*
X-93686Y114075D01*
X-94050Y113530D01*
X-94178Y112886D01*
Y110435D01*
X-95061D01*
Y101565D01*
X-92310D01*
X-84682Y93937D01*
Y54000D01*
X-84554Y53356D01*
X-84190Y52810D01*
X-61672Y30293D01*
X-61672Y30293D01*
X-61126Y29928D01*
X-60482Y29800D01*
X-60482Y29800D01*
X-58597D01*
Y19970D01*
X-46380D01*
Y42030D01*
X-58597D01*
Y33165D01*
X-59786D01*
X-81318Y54697D01*
Y94634D01*
X-81446Y95278D01*
X-81810Y95824D01*
X-89931Y103944D01*
Y106236D01*
X-89431Y106335D01*
X-89119Y105584D01*
X-88416Y104881D01*
X-87500Y104501D01*
Y107000D01*
Y109499D01*
X-88416Y109119D01*
X-89119Y108416D01*
X-89431Y107665D01*
X-89931Y107764D01*
Y110435D01*
X-90814D01*
Y112189D01*
X-89168Y113835D01*
X-88935Y113601D01*
X-88328Y113350D01*
X-87672D01*
X-87065Y113601D01*
X-86601Y114065D01*
X-86350Y114672D01*
Y115328D01*
X-86601Y115935D01*
X-86835Y116168D01*
X-77734Y125268D01*
X-75518D01*
X-75355Y125301D01*
X-69596D01*
Y138699D01*
D02*
G37*
G36*
X-88500Y123500D02*
X-90499D01*
X-90119Y122584D01*
X-89416Y121881D01*
X-88500Y121501D01*
Y123500D01*
D02*
G37*
G36*
X-138540Y142491D02*
X-139460D01*
X-140347Y142253D01*
X-141143Y141793D01*
X-141793Y141143D01*
X-142253Y140347D01*
X-142491Y139460D01*
Y138540D01*
X-142253Y137653D01*
X-141793Y136857D01*
X-141143Y136207D01*
X-140347Y135747D01*
X-139460Y135509D01*
X-138540D01*
X-137653Y135747D01*
X-136857Y136207D01*
X-136207Y136857D01*
X-135941Y137318D01*
X-127551D01*
X-124109Y133875D01*
Y129746D01*
X-121918D01*
Y122819D01*
X-122402D01*
X-123140Y122622D01*
X-123801Y122240D01*
X-124341Y121700D01*
X-124723Y121039D01*
X-124921Y120301D01*
Y119538D01*
X-124723Y118800D01*
X-124341Y118139D01*
X-123801Y117599D01*
X-123140Y117217D01*
X-122402Y117019D01*
X-121639D01*
X-120901Y117217D01*
X-120240Y117599D01*
X-119700Y118139D01*
X-119318Y118800D01*
X-119121Y119538D01*
Y120301D01*
X-119318Y121039D01*
X-119700Y121700D01*
X-120082Y122082D01*
Y129746D01*
X-119175D01*
Y136254D01*
X-121730D01*
X-125665Y140190D01*
X-126211Y140554D01*
X-126854Y140682D01*
X-127497D01*
X-127601Y140935D01*
X-128065Y141399D01*
X-128672Y141650D01*
X-129328D01*
X-129935Y141399D01*
X-130399Y140935D01*
X-130503Y140682D01*
X-135941D01*
X-136207Y141143D01*
X-136857Y141793D01*
X-137653Y142253D01*
X-138540Y142491D01*
D02*
G37*
G36*
X-121000Y116000D02*
Y114001D01*
X-119001D01*
X-119381Y114917D01*
X-120084Y115621D01*
X-121000Y116000D01*
D02*
G37*
G36*
X-122000D02*
X-122916Y115621D01*
X-123619Y114917D01*
X-123999Y114001D01*
X-122000D01*
Y116000D01*
D02*
G37*
G36*
X-71500Y115499D02*
Y113500D01*
X-69501D01*
X-69881Y114416D01*
X-70584Y115119D01*
X-71500Y115499D01*
D02*
G37*
G36*
X-72500D02*
X-73416Y115119D01*
X-74119Y114416D01*
X-74499Y113500D01*
X-72500D01*
Y115499D01*
D02*
G37*
G36*
X-48500Y114499D02*
Y112500D01*
X-46501D01*
X-46881Y113416D01*
X-47584Y114119D01*
X-48500Y114499D01*
D02*
G37*
G36*
X-49500D02*
X-50416Y114119D01*
X-51119Y113416D01*
X-51499Y112500D01*
X-49500D01*
Y114499D01*
D02*
G37*
G36*
X-119001Y113001D02*
X-121000D01*
Y111002D01*
X-120084Y111382D01*
X-119381Y112085D01*
X-119001Y113001D01*
D02*
G37*
G36*
X-122000D02*
X-123999D01*
X-123619Y112085D01*
X-122916Y111382D01*
X-122000Y111002D01*
Y113001D01*
D02*
G37*
G36*
X-69501Y112500D02*
X-71500D01*
Y110501D01*
X-70584Y110881D01*
X-69881Y111584D01*
X-69501Y112500D01*
D02*
G37*
G36*
X-72500D02*
X-74499D01*
X-74119Y111584D01*
X-73416Y110881D01*
X-72500Y110501D01*
Y112500D01*
D02*
G37*
G36*
X-46501Y111500D02*
X-48500D01*
Y109501D01*
X-47584Y109881D01*
X-46881Y110584D01*
X-46501Y111500D01*
D02*
G37*
G36*
X-49500D02*
X-51499D01*
X-51119Y110584D01*
X-50416Y109881D01*
X-49500Y109501D01*
Y111500D01*
D02*
G37*
G36*
X-86500Y109499D02*
Y107500D01*
X-84501D01*
X-84881Y108416D01*
X-85584Y109119D01*
X-86500Y109499D01*
D02*
G37*
G36*
X-84501Y106500D02*
X-86500D01*
Y104501D01*
X-85584Y104881D01*
X-84881Y105584D01*
X-84501Y106500D01*
D02*
G37*
G36*
X-9500Y105499D02*
Y103500D01*
X-7501D01*
X-7881Y104416D01*
X-8584Y105119D01*
X-9500Y105499D01*
D02*
G37*
G36*
X-10500D02*
X-11416Y105119D01*
X-12119Y104416D01*
X-12499Y103500D01*
X-10500D01*
Y105499D01*
D02*
G37*
G36*
X-7501Y102500D02*
X-9500D01*
Y100501D01*
X-8584Y100881D01*
X-7881Y101584D01*
X-7501Y102500D01*
D02*
G37*
G36*
X-10500D02*
X-12499D01*
X-12119Y101584D01*
X-11416Y100881D01*
X-10500Y100501D01*
Y102500D01*
D02*
G37*
G36*
X-46380Y98030D02*
X-58597D01*
Y87816D01*
X-61866D01*
X-61866Y87816D01*
X-62510Y87688D01*
X-63056Y87323D01*
X-63056Y87323D01*
X-74347Y76032D01*
X-74712Y75486D01*
X-74840Y74843D01*
Y71446D01*
X-74974Y71368D01*
X-75525Y70817D01*
X-75915Y70142D01*
X-76116Y69390D01*
Y68610D01*
X-75915Y67858D01*
X-75525Y67183D01*
X-74974Y66632D01*
X-74300Y66243D01*
X-73547Y66041D01*
X-72768D01*
X-72015Y66243D01*
X-71341Y66632D01*
X-70790Y67183D01*
X-70400Y67858D01*
X-70198Y68610D01*
Y69390D01*
X-70400Y70142D01*
X-70790Y70817D01*
X-71341Y71368D01*
X-71475Y71446D01*
Y74146D01*
X-63977Y81644D01*
X-63935Y81601D01*
X-63328Y81350D01*
X-62672D01*
X-62065Y81601D01*
X-61601Y82065D01*
X-61350Y82672D01*
Y83328D01*
X-61601Y83935D01*
X-61644Y83977D01*
X-61170Y84451D01*
X-58597D01*
Y75970D01*
X-46380D01*
Y98030D01*
D02*
G37*
G36*
X-122441Y88716D02*
X-124500D01*
Y86657D01*
X-122441D01*
Y88716D01*
D02*
G37*
G36*
X-125500D02*
X-127559D01*
Y86657D01*
X-125500D01*
Y88716D01*
D02*
G37*
G36*
X-122441Y85657D02*
X-124500D01*
Y83598D01*
X-122441D01*
Y85657D01*
D02*
G37*
G36*
X-125500D02*
X-127559D01*
Y83598D01*
X-125500D01*
Y85657D01*
D02*
G37*
G36*
X-76939Y110435D02*
X-82069D01*
Y101565D01*
X-76939D01*
Y104318D01*
X-74377D01*
X-74321Y104219D01*
X-73781Y103679D01*
X-73119Y103298D01*
X-72382Y103100D01*
X-71618D01*
X-70881Y103298D01*
X-70219Y103679D01*
X-69679Y104219D01*
X-69623Y104318D01*
X-67503D01*
X-67399Y104065D01*
X-66935Y103601D01*
X-66328Y103350D01*
X-65672D01*
X-65065Y103601D01*
X-64601Y104065D01*
X-64497Y104318D01*
X-45697D01*
X-36570Y95190D01*
X-36570Y95190D01*
X-36024Y94826D01*
X-35380Y94698D01*
X-19621D01*
Y75970D01*
X-7403D01*
Y98030D01*
X-17807D01*
X-17970Y98062D01*
X-34683D01*
X-43810Y107190D01*
X-44356Y107554D01*
X-45000Y107682D01*
X-69623D01*
X-69679Y107781D01*
X-70219Y108321D01*
X-70881Y108702D01*
X-71618Y108900D01*
X-72382D01*
X-73119Y108702D01*
X-73781Y108321D01*
X-74321Y107781D01*
X-74377Y107682D01*
X-76939D01*
Y110435D01*
D02*
G37*
G36*
X-49500Y73499D02*
Y71500D01*
X-47501D01*
X-47881Y72416D01*
X-48584Y73119D01*
X-49500Y73499D01*
D02*
G37*
G36*
X-50500D02*
X-51416Y73119D01*
X-52119Y72416D01*
X-52499Y71500D01*
X-50500D01*
Y73499D01*
D02*
G37*
G36*
X-90284Y71559D02*
X-92343D01*
Y69500D01*
X-90284D01*
Y71559D01*
D02*
G37*
G36*
X-93343D02*
X-95402D01*
Y69500D01*
X-93343D01*
Y71559D01*
D02*
G37*
G36*
X-47501Y70500D02*
X-49500D01*
Y68501D01*
X-48584Y68881D01*
X-47881Y69584D01*
X-47501Y70500D01*
D02*
G37*
G36*
X-50500D02*
X-52499D01*
X-52119Y69584D01*
X-51416Y68881D01*
X-50500Y68501D01*
Y70500D01*
D02*
G37*
G36*
X-90284Y68500D02*
X-92343D01*
Y66441D01*
X-90284D01*
Y68500D01*
D02*
G37*
G36*
X-93343D02*
X-95402D01*
Y66441D01*
X-93343D01*
Y68500D01*
D02*
G37*
G36*
X-7803Y41630D02*
X-13012D01*
Y31500D01*
X-7803D01*
Y41630D01*
D02*
G37*
G36*
X-24500Y33499D02*
Y31500D01*
X-22501D01*
X-22881Y32416D01*
X-23584Y33119D01*
X-24500Y33499D01*
D02*
G37*
G36*
X-25500D02*
X-26416Y33119D01*
X-27119Y32416D01*
X-27499Y31500D01*
X-25500D01*
Y33499D01*
D02*
G37*
G36*
X-14012Y41630D02*
X-19220D01*
Y31500D01*
X-14012D01*
Y41630D01*
D02*
G37*
G36*
X-22501Y30500D02*
X-24500D01*
Y28501D01*
X-23584Y28881D01*
X-22881Y29584D01*
X-22501Y30500D01*
D02*
G37*
G36*
X-25500D02*
X-27499D01*
X-27119Y29584D01*
X-26416Y28881D01*
X-25500Y28501D01*
Y30500D01*
D02*
G37*
G36*
X-7803D02*
X-13012D01*
Y20370D01*
X-7803D01*
Y30500D01*
D02*
G37*
G36*
X-14012D02*
X-19220D01*
Y20370D01*
X-14012D01*
Y30500D01*
D02*
G37*
G36*
X-91933Y28571D02*
X-94886D01*
X-95618Y28425D01*
X-96239Y28010D01*
X-96653Y27390D01*
X-96799Y26658D01*
Y21342D01*
X-96653Y20610D01*
X-96239Y19990D01*
X-95618Y19575D01*
X-94886Y19429D01*
X-91933D01*
X-91201Y19575D01*
X-90580Y19990D01*
X-90166Y20610D01*
X-90020Y21342D01*
Y22318D01*
X-85000D01*
X-84838Y22350D01*
X-84672D01*
X-84519Y22413D01*
X-84356Y22446D01*
X-84218Y22538D01*
X-84065Y22601D01*
X-83948Y22718D01*
X-83810Y22810D01*
X-83718Y22948D01*
X-83601Y23065D01*
X-83538Y23218D01*
X-83446Y23356D01*
X-83413Y23519D01*
X-83350Y23672D01*
Y23837D01*
X-83318Y24000D01*
X-83350Y24162D01*
Y24328D01*
X-83413Y24481D01*
X-83446Y24644D01*
X-83538Y24782D01*
X-83601Y24935D01*
X-83718Y25052D01*
X-83810Y25190D01*
X-83948Y25282D01*
X-84065Y25399D01*
X-84218Y25462D01*
X-84356Y25554D01*
X-84519Y25587D01*
X-84672Y25650D01*
X-84838D01*
X-85000Y25682D01*
X-90020D01*
Y26658D01*
X-90166Y27390D01*
X-90580Y28010D01*
X-91201Y28425D01*
X-91933Y28571D01*
D02*
G37*
G36*
X-115555D02*
X-118508D01*
X-119240Y28425D01*
X-119861Y28010D01*
X-120275Y27390D01*
X-120421Y26658D01*
Y21342D01*
X-120275Y20610D01*
X-119861Y19990D01*
X-119240Y19575D01*
X-118508Y19429D01*
X-115555D01*
X-114823Y19575D01*
X-114202Y19990D01*
X-113787Y20610D01*
X-113642Y21342D01*
Y26658D01*
X-113787Y27390D01*
X-114202Y28010D01*
X-114823Y28425D01*
X-115555Y28571D01*
D02*
G37*
G36*
X-102563Y8885D02*
X-107878D01*
X-108610Y8740D01*
X-109231Y8325D01*
X-109645Y7705D01*
X-109791Y6972D01*
Y4020D01*
X-109645Y3288D01*
X-109231Y2667D01*
X-108610Y2252D01*
X-107878Y2107D01*
X-102563D01*
X-101831Y2252D01*
X-101210Y2667D01*
X-100795Y3288D01*
X-100789Y3318D01*
X-85000D01*
X-84838Y3350D01*
X-84672D01*
X-84519Y3413D01*
X-84356Y3446D01*
X-84218Y3538D01*
X-84065Y3601D01*
X-83948Y3718D01*
X-83810Y3810D01*
X-83718Y3948D01*
X-83601Y4065D01*
X-83538Y4218D01*
X-83446Y4356D01*
X-83413Y4519D01*
X-83350Y4672D01*
Y4837D01*
X-83318Y5000D01*
X-83350Y5162D01*
Y5328D01*
X-83413Y5481D01*
X-83446Y5644D01*
X-83538Y5782D01*
X-83601Y5935D01*
X-83718Y6052D01*
X-83810Y6190D01*
X-83948Y6282D01*
X-84065Y6399D01*
X-84218Y6462D01*
X-84356Y6554D01*
X-84519Y6587D01*
X-84672Y6650D01*
X-84838D01*
X-85000Y6682D01*
X-100650D01*
Y6972D01*
X-100795Y7705D01*
X-101210Y8325D01*
X-101831Y8740D01*
X-102563Y8885D01*
D02*
G37*
%LPD*%
D15*
X-13512Y31000D02*
D03*
X-52488D02*
D03*
X-13512Y87000D02*
D03*
X-52488D02*
D03*
D16*
X-114358Y133000D02*
D03*
X-121642D02*
D03*
D17*
X-98618Y132000D02*
D03*
X-73382D02*
D03*
D18*
X-92496Y106000D02*
D03*
X-79504D02*
D03*
D19*
X-62000Y135000D02*
D03*
X-66000Y105000D02*
D03*
X-88000Y115000D02*
D03*
X-108000Y134000D02*
D03*
X-129000Y140000D02*
D03*
X-85000Y24000D02*
D03*
Y5000D02*
D03*
X-63000Y83000D02*
D03*
D23*
X-9000Y130000D02*
D03*
X-139000Y129000D02*
D03*
D24*
X-9000Y140000D02*
D03*
X-139000Y139000D02*
D03*
D25*
X-125000Y105843D02*
D03*
X-73157Y69000D02*
D03*
D26*
X-125000Y86157D02*
D03*
D29*
X-92843Y69000D02*
D03*
D31*
X-105220Y5496D02*
X-104724Y5000D01*
X-85000D01*
X-93409Y24000D02*
X-85000D01*
X-114358Y133000D02*
X-99618D01*
X-72000Y106000D02*
X-45000D01*
X-79504D02*
X-72000D01*
X-53355Y86134D02*
X-52488Y87000D01*
X-73157Y74843D02*
X-61866Y86134D01*
X-53355D01*
X-73157Y69000D02*
Y74843D01*
X-60482Y31482D02*
X-52971D01*
X-83000Y54000D02*
Y94634D01*
X-52971Y31482D02*
X-52488Y31000D01*
X-83000Y54000D02*
X-60482Y31482D01*
X-92496Y104130D02*
X-83000Y94634D01*
X-45000Y106000D02*
X-35380Y96380D01*
X-17970D01*
X-13512Y91921D01*
Y87000D02*
Y91921D01*
X-113541Y130541D02*
X-110000Y127000D01*
Y113000D02*
Y127000D01*
X-117157Y105843D02*
X-110000Y113000D01*
X-125000Y105843D02*
X-117157D01*
X-92496Y106000D02*
Y112886D01*
X-78431Y126951D01*
X-75518D01*
X-73382Y129087D01*
Y132000D01*
X-99618Y133000D02*
X-98618Y132000D01*
X-113541Y130541D02*
Y131396D01*
X-114358Y132213D02*
X-113541Y131396D01*
X-126854Y139000D02*
X-121642Y133787D01*
X-139000Y139000D02*
X-126854D01*
D32*
X-121642Y133000D02*
X-121000Y132358D01*
Y122022D02*
Y132358D01*
X-122021Y121002D02*
X-121000Y122022D01*
X-122021Y119919D02*
Y121002D01*
X-116000Y117000D02*
Y118082D01*
X-115000Y119082D02*
Y129900D01*
X-114358Y130541D01*
X-116000Y118082D02*
X-115000Y119082D01*
X-121642Y133000D02*
Y133787D01*
X-92496Y104130D02*
Y106000D01*
X-114358Y132213D02*
Y133000D01*
D33*
X-105220Y5496D02*
D03*
D34*
X-117031Y24000D02*
D03*
X-93409D02*
D03*
D35*
X-118000Y140000D02*
D03*
X-10000Y103000D02*
D03*
X-62000Y140000D02*
D03*
X-49000Y112000D02*
D03*
X-72000Y106000D02*
D03*
X-122021Y119919D02*
D03*
X-116000Y117000D02*
D03*
X-121500Y113501D02*
D03*
X-50000Y71000D02*
D03*
X-88000Y124000D02*
D03*
X-87000Y107000D02*
D03*
X-72000Y113000D02*
D03*
X-25000Y31000D02*
D03*
M02*
