M48
;Layer_Color=9474304
;FILE_FORMAT=2:4
INCH,TZ
;TYPE=PLATED
T1F00S00C0.0280
T2F00S00C0.0315
T4F00S00C0.0402
%
T01
X-2500Y3100
X-5000Y7100
X-4900Y11200
X-7200Y11300
Y10600
X-8700Y10700
X-8800Y12400
X-6200Y14000
X-1000Y10300
X-11600Y11700
X-12202Y11992
X-12150Y11350
X-11800Y14000
T02
X-9284Y6900
X-7316
X-12500Y8616
Y10584
T04
X-900Y13000
Y14000
X-13900Y13900
Y12900
M30
