G04*
G04 #@! TF.GenerationSoftware,Altium Limited,Altium Designer,22.3.1 (43)*
G04*
G04 Layer_Color=8388736*
%FSLAX25Y25*%
%MOIN*%
G70*
G04*
G04 #@! TF.SameCoordinates,F7C1A061-9160-4E77-96F9-A621A9ACEB86*
G04*
G04*
G04 #@! TF.FilePolarity,Negative*
G04*
G01*
G75*
%ADD18R,0.06772X0.12598*%
%ADD19R,0.04331X0.08071*%
%ADD20C,0.03300*%
%ADD21R,0.12217X0.22060*%
%ADD22R,0.04934X0.06509*%
G04:AMPARAMS|DCode=23|XSize=90.68mil|YSize=67.06mil|CornerRadius=18.76mil|HoleSize=0mil|Usage=FLASHONLY|Rotation=90.000|XOffset=0mil|YOffset=0mil|HoleType=Round|Shape=RoundedRectangle|*
%AMROUNDEDRECTD23*
21,1,0.09068,0.02953,0,0,90.0*
21,1,0.05315,0.06706,0,0,90.0*
1,1,0.03753,0.01476,0.02657*
1,1,0.03753,0.01476,-0.02657*
1,1,0.03753,-0.01476,-0.02657*
1,1,0.03753,-0.01476,0.02657*
%
%ADD23ROUNDEDRECTD23*%
G04:AMPARAMS|DCode=24|XSize=90.68mil|YSize=67.06mil|CornerRadius=18.76mil|HoleSize=0mil|Usage=FLASHONLY|Rotation=180.000|XOffset=0mil|YOffset=0mil|HoleType=Round|Shape=RoundedRectangle|*
%AMROUNDEDRECTD24*
21,1,0.09068,0.02953,0,0,180.0*
21,1,0.05315,0.06706,0,0,180.0*
1,1,0.03753,-0.02657,0.01476*
1,1,0.03753,0.02657,0.01476*
1,1,0.03753,0.02657,-0.01476*
1,1,0.03753,-0.02657,-0.01476*
%
%ADD24ROUNDEDRECTD24*%
%ADD25R,0.06181X0.06181*%
%ADD26C,0.06181*%
%ADD27C,0.05118*%
%ADD28R,0.05118X0.05118*%
%ADD29R,0.05118X0.05118*%
%ADD30C,0.05800*%
D18*
X-98618Y132000D02*
D03*
X-73382D02*
D03*
D19*
X-92496Y106000D02*
D03*
X-79504D02*
D03*
D20*
X-85000Y24000D02*
D03*
Y5000D02*
D03*
X-62000Y135000D02*
D03*
X-66000Y105000D02*
D03*
X-88000Y115000D02*
D03*
X-108000Y134000D02*
D03*
X-129000Y140000D02*
D03*
X-63000Y83000D02*
D03*
D21*
X-13512Y31000D02*
D03*
X-52488D02*
D03*
X-13512Y87000D02*
D03*
X-52488D02*
D03*
D22*
X-114358Y133000D02*
D03*
X-121642D02*
D03*
D23*
X-93409Y24000D02*
D03*
X-117031D02*
D03*
D24*
X-105220Y5496D02*
D03*
D25*
X-9000Y130000D02*
D03*
X-139000Y129000D02*
D03*
D26*
X-9000Y140000D02*
D03*
X-139000Y139000D02*
D03*
D27*
X-125000Y105843D02*
D03*
X-73157Y69000D02*
D03*
D28*
X-125000Y86157D02*
D03*
D29*
X-92843Y69000D02*
D03*
D30*
X-118000Y140000D02*
D03*
X-10000Y103000D02*
D03*
X-62000Y140000D02*
D03*
X-49000Y112000D02*
D03*
X-72000Y106000D02*
D03*
X-122021Y119919D02*
D03*
X-116000Y117000D02*
D03*
X-121500Y113501D02*
D03*
X-50000Y71000D02*
D03*
X-88000Y124000D02*
D03*
X-87000Y107000D02*
D03*
X-72000Y113000D02*
D03*
X-25000Y31000D02*
D03*
M02*
