G04*
G04 #@! TF.GenerationSoftware,Altium Limited,Altium Designer,22.3.1 (43)*
G04*
G04 Layer_Color=2752767*
%FSLAX25Y25*%
%MOIN*%
G70*
G04*
G04 #@! TF.SameCoordinates,F7C1A061-9160-4E77-96F9-A621A9ACEB86*
G04*
G04*
G04 #@! TF.FilePolarity,Positive*
G04*
G01*
G75*
%ADD50C,0.00200*%
%ADD51C,0.00267*%
D50*
X-94209Y23200D02*
Y24800D01*
X-92609D01*
Y23200D01*
X-94209D01*
X-117831D02*
Y24800D01*
X-116231D01*
Y23200D01*
X-117831D01*
X-106020Y4696D02*
Y6296D01*
X-104420D01*
Y4696D01*
X-106020D01*
X-125000Y105043D02*
X-125800Y106643D01*
X-124200D01*
X-125000Y105043D01*
Y85357D02*
X-125800Y86957D01*
X-124200D01*
X-125000Y85357D01*
X-92843Y68200D02*
X-93643Y69800D01*
X-92043D01*
X-92843Y68200D01*
X-73157D02*
X-73957Y69800D01*
X-72357D01*
X-73157Y68200D01*
X-118000Y139200D02*
X-117600Y139600D01*
X-117200D01*
X-117600Y140000D01*
X-117200Y140400D01*
X-117600D01*
X-118000Y140800D01*
X-118400Y140400D01*
X-118800D01*
X-118400Y140000D01*
X-118800Y139600D01*
X-118400D01*
X-118000Y139200D01*
X-10000Y102200D02*
X-9600Y102600D01*
X-9200D01*
X-9600Y103000D01*
X-9200Y103400D01*
X-9600D01*
X-10000Y103800D01*
X-10400Y103400D01*
X-10800D01*
X-10400Y103000D01*
X-10800Y102600D01*
X-10400D01*
X-10000Y102200D01*
X-62000Y139200D02*
X-61600Y139600D01*
X-61200D01*
X-61600Y140000D01*
X-61200Y140400D01*
X-61600D01*
X-62000Y140800D01*
X-62400Y140400D01*
X-62800D01*
X-62400Y140000D01*
X-62800Y139600D01*
X-62400D01*
X-62000Y139200D01*
X-49000Y111200D02*
X-48600Y111600D01*
X-48200D01*
X-48600Y112000D01*
X-48200Y112400D01*
X-48600D01*
X-49000Y112800D01*
X-49400Y112400D01*
X-49800D01*
X-49400Y112000D01*
X-49800Y111600D01*
X-49400D01*
X-49000Y111200D01*
X-72000Y105200D02*
X-71600Y105600D01*
X-71200D01*
X-71600Y106000D01*
X-71200Y106400D01*
X-71600D01*
X-72000Y106800D01*
X-72400Y106400D01*
X-72800D01*
X-72400Y106000D01*
X-72800Y105600D01*
X-72400D01*
X-72000Y105200D01*
X-122021Y119119D02*
X-121621Y119519D01*
X-121221D01*
X-121621Y119919D01*
X-121221Y120319D01*
X-121621D01*
X-122021Y120719D01*
X-122421Y120319D01*
X-122821D01*
X-122421Y119919D01*
X-122821Y119519D01*
X-122421D01*
X-122021Y119119D01*
X-116000Y116200D02*
X-115600Y116600D01*
X-115200D01*
X-115600Y117000D01*
X-115200Y117400D01*
X-115600D01*
X-116000Y117800D01*
X-116400Y117400D01*
X-116800D01*
X-116400Y117000D01*
X-116800Y116600D01*
X-116400D01*
X-116000Y116200D01*
X-121500Y112701D02*
X-121100Y113101D01*
X-120700D01*
X-121100Y113501D01*
X-120700Y113901D01*
X-121100D01*
X-121500Y114301D01*
X-121900Y113901D01*
X-122300D01*
X-121900Y113501D01*
X-122300Y113101D01*
X-121900D01*
X-121500Y112701D01*
X-50000Y70200D02*
X-49600Y70600D01*
X-49200D01*
X-49600Y71000D01*
X-49200Y71400D01*
X-49600D01*
X-50000Y71800D01*
X-50400Y71400D01*
X-50800D01*
X-50400Y71000D01*
X-50800Y70600D01*
X-50400D01*
X-50000Y70200D01*
X-88000Y123200D02*
X-87600Y123600D01*
X-87200D01*
X-87600Y124000D01*
X-87200Y124400D01*
X-87600D01*
X-88000Y124800D01*
X-88400Y124400D01*
X-88800D01*
X-88400Y124000D01*
X-88800Y123600D01*
X-88400D01*
X-88000Y123200D01*
X-87000Y106200D02*
X-86600Y106600D01*
X-86200D01*
X-86600Y107000D01*
X-86200Y107400D01*
X-86600D01*
X-87000Y107800D01*
X-87400Y107400D01*
X-87800D01*
X-87400Y107000D01*
X-87800Y106600D01*
X-87400D01*
X-87000Y106200D01*
X-72000Y112200D02*
X-71600Y112600D01*
X-71200D01*
X-71600Y113000D01*
X-71200Y113400D01*
X-71600D01*
X-72000Y113800D01*
X-72400Y113400D01*
X-72800D01*
X-72400Y113000D01*
X-72800Y112600D01*
X-72400D01*
X-72000Y112200D01*
X-25000Y30200D02*
X-24600Y30600D01*
X-24200D01*
X-24600Y31000D01*
X-24200Y31400D01*
X-24600D01*
X-25000Y31800D01*
X-25400Y31400D01*
X-25800D01*
X-25400Y31000D01*
X-25800Y30600D01*
X-25400D01*
X-25000Y30200D01*
D51*
X-8200Y130000D02*
G03*
X-8200Y130000I-800J0D01*
G01*
Y140000D02*
G03*
X-8200Y140000I-800J0D01*
G01*
X-138200Y139000D02*
G03*
X-138200Y139000I-800J0D01*
G01*
Y129000D02*
G03*
X-138200Y129000I-800J0D01*
G01*
M02*
